<?xml version="1.0" encoding="UTF-8"?>
<svg id="Camada_1" xmlns="http://www.w3.org/2000/svg" viewBox="0 0 688.54 916">
  <g>
    <g>
      <path d="M250.91,610.23v55.42c0,10.91-2.46,19.76-7.38,26.57-4.93,6.81-12.38,10.22-22.37,10.22-8.04,0-14.05-1.62-18.07-4.88-4-3.25-6.65-7.75-7.94-13.51-1.29-5.74-1.93-13.92-1.93-24.53v-49.28h-34.08v49.28c0,16.51,1.21,29.41,3.64,38.72,1.38,5.34,3.55,9.94,6.48,13.83,6.84-2.26,14.17-3.44,21.93-3.44,14.75,0,29.87,3.56,45.91,10.85.06-.03.11-.06.17-.11,7.27-5.07,11.8-12.45,13.62-22.15l-1.59,26.57h35.88v-113.56h-34.3Z" style="fill: #1b4a3f;"/>
      <path d="M294.65,564.8v158.98h34.08v-158.98h-34.08Z" style="fill: #1b4a3f;"/>
      <polygon points="406.54 611.14 388.37 611.14 388.37 564.81 354.07 564.81 354.07 611.14 335.9 611.14 335.9 639.53 354.07 639.53 354.07 723.79 388.37 723.79 388.37 639.53 406.54 639.53 406.54 611.14" style="fill: #1b4a3f;"/>
      <path d="M412.84,610.23v113.56h33.84v-113.56h-33.84ZM442.71,568.85c-2.51-2.57-6.78-3.86-12.84-3.86s-10.38,1.29-12.95,3.86c-2.57,2.57-3.86,6.81-3.86,12.71s1.29,10.42,3.86,13.06c2.57,2.65,6.89,3.99,12.95,3.99s10.33-1.33,12.84-3.99c2.5-2.64,3.74-7,3.74-13.06s-1.24-10.14-3.74-12.71Z" style="fill: #1b4a3f;"/>
      <path d="M535,610.23l-24.3,76.77-24.53-76.77h-34.06l38.38,113.56h40.2l38.61-113.56h-34.3Z" style="fill: #1b4a3f;"/>
      <path d="M28.79,662.32c.44-13.78,5.23-29.1,12.46-40.01,10.81,7.33,24.8,12.38,39.11,13.94,3.7.41,7.58.61,11.52.61,12.13,0,52.63-2.37,64.73-32.76,4.14-10.28,3.06-22.16-2.81-31-9.12-13.72-27.58-17.63-37.78-18.74-2.92-.31-5.9-.49-8.85-.49-20.91,0-42.85,8.24-61.95,22.96.44-2.43,1.52-4.65,3.17-6.26l3.88-3.78c1.71-1.66,2.68-3.96,2.7-6.34.02-2.39-.94-4.68-2.62-6.36l-7.82-7.79c-1.74-1.74-4.02-2.61-6.29-2.61s-4.5.85-6.23,2.54c0,0-4,3.91-4.07,3.96-5.01,5.16-8.55,11.68-10.3,18.83-1.66,6.83-1.6,13.91.16,21.11.91,3.64,2.2,7.11,3.86,10.41-1.22,1.63-2.43,3.33-3.59,5.12-10.45,14.97-17.16,35.74-17.96,55.48-1,20.67,4.46,39,15.81,53.02,11.65,14.36,28.66,23.14,49.22,25.38,2.78.3,5.71.46,8.73.46,24.5,0,57.98-10.5,74.59-30.56.03-.05,3.55-4.46,3.55-4.46,3.01-3.8,2.46-9.29-1.26-12.4l-8.16-6.83c-1.62-1.35-3.64-2.09-5.73-2.09-.27,0-.53.02-.78.03-2.37.22-4.54,1.35-6.06,3.17l-3.34,4c-10.12,11.49-33.21,20.48-52.61,20.48-1.95,0-3.81-.09-5.56-.28-26.35-2.87-41.2-21.03-39.73-48.58.02-.06.02-.13.02-.19ZM107.26,582.82c1.96,0,3.96.11,5.89.31,9.13.99,15.33,3.66,16.78,5.82.6.89.86,2.76.19,4.46-4.36,10.91-23.28,14.79-38.14,14.79h-.02c-2.86,0-5.71-.14-8.24-.42-8.55-.93-16.39-3.33-22.84-6.94,14.16-11.41,30.92-18.02,46.38-18.02Z" style="fill: #1b4a3f;"/>
      <path d="M679.73,675.92c-.05-.06-.08-.14-.13-.2-2.17-3.33-4.27-6.11-6.47-8.52,1.6-13.83,1.1-25.91-1.51-35.94-6.34-24.33-24.49-38.28-49.79-38.28-18.07,0-35.77,8.62-46.27,22.49l-2.37,2.87c-1.48,1.79-2.17,4.08-1.93,6.37.25,2.31,1.4,4.41,3.2,5.85l6.22,4.98c1.54,1.22,3.44,1.88,5.38,1.88.35,0,.71-.02,1.05-.06,2.31-.28,4.39-1.48,5.81-3.31l2.34-3.08c5.85-7.75,16.21-12.76,26.4-12.76,5.92,0,11.88,1.74,17.23,5.05,3.8,2.54,6.62,7.38,8.38,14.44,1,3.89,1.59,8.19,1.74,12.68-8.82-3.63-18.65-5.65-28.08-5.65-18.83,0-35.16,8.59-44.81,23.56-6.06,9.51-8.05,21.42-5.6,33.67.99,4.6,2.64,8.84,4.85,12.64,3.89,1.16,7.6,2.87,11.05,5.09,0,0,.34.22.44.27,5.13,3.5,9.48,8.11,12.92,13.56,4.63,1.4,9.64,2.13,14.93,2.13,21.03,0,37.72-11.85,48.28-33.81,1.08,6.8-.11,12.07-.69,14.09l-1.07,3.74c-1.29,4.5,1.26,9.21,5.73,10.61l7.49,2.31c.83.25,1.68.39,2.54.39,1.4,0,2.78-.35,4.03-1,2.02-1.08,3.55-2.92,4.21-5.12l1.26-4.08c.03-.14.08-.28.11-.42,2.84-11.36,3.96-28.64-6.87-46.43ZM623.27,709.14c-2.7.82-5.59,1.24-8.37,1.24-6.39,0-17.45-1.77-19.86-13.75-1.13-5.59-.35-10.45,2.43-14.86,4.96-7.94,12.81-11.79,24-11.79,8.85,0,16.67,2.23,24.19,6.95-4.24,14.63-13.01,29.52-22.4,32.21Z" style="fill: #1b4a3f;"/>
    </g>
    <path d="M516.18,783.15v23.4c-.46-6.97-.6-15.04,0-23.4Z" style="fill: #1b4a3f;"/>
    <g>
      <path d="M303.71,795.62c6.05,10.53,9.08,25.02,9.08,43.49s-3.03,33.58-9.08,44.4c-6.06,10.83-15.9,16.24-29.53,16.24-11.05,0-20.52-2.58-28.39-7.72-7.87-5.15-13.78-12.3-17.72-21.46-3.94-9.16-5.9-19.57-5.9-31.23s1.97-21.95,5.9-30.89c3.94-8.93,9.8-15.93,17.6-21.01,7.8-5.07,17.3-7.61,28.5-7.61,13.63,0,23.47,5.26,29.53,15.78ZM263.17,820.49c-4.47,4.39-6.7,10.9-6.7,19.53s2.23,14.88,6.7,19.19c4.46,4.31,11.01,6.47,19.65,6.47s15.41-2.16,19.87-6.47c4.46-4.31,6.7-10.71,6.7-19.19s-2.24-14.95-6.7-19.42c-4.47-4.47-11.09-6.7-19.87-6.7s-15.18,2.2-19.65,6.59ZM294.85,748.99h29.07l-23.39,25.53h-17.49l11.81-25.53ZM343.46,896.58h-34.07v-113.56h34.07v113.56Z" style="fill: #1b4a3f;"/>
      <path d="M365.6,794.94c10.22-10.07,25.25-15.1,45.08-15.1,13.32,0,24.64,2.77,33.96,8.29,9.31,5.53,16.24,13.59,20.78,24.19l-22.71,12.95c-2.42-5.15-6.36-9.01-11.81-11.58-5.45-2.57-12.19-3.86-20.21-3.86-9.69,0-17.07,2.65-22.14,7.95-5.08,5.3-7.61,12.42-7.61,21.35,0,10.9,2.42,18.74,7.27,23.51,4.84,4.77,12.34,7.15,22.48,7.15,8.02,0,14.76-1.28,20.21-3.86,5.45-2.57,9.39-6.36,11.81-11.36l22.71,12.72c-4.54,10.6-11.47,18.66-20.78,24.19-9.31,5.53-20.63,8.29-33.96,8.29-20.14,0-35.24-5.11-45.31-15.33-10.07-10.22-15.1-25.25-15.1-45.09s5.11-34.33,15.33-44.4Z" style="fill: #1b4a3f;"/>
      <path d="M246.57,734.76l-4.86-2.56c-18.07-9.53-34.59-14.16-50.52-14.16-37.21,0-62.83,31.06-69.49,83.59l-5.68.21c-2.51.09-4.88,1.18-6.58,3.03s-2.6,4.3-2.48,6.81l.51,11.28c.23,5.05,4.39,8.99,9.4,8.99.12,0,.25,0,.38,0l3.52-.14c1.11,23.49,6.19,47.83,15.15,72.5l1.75,5.26c.8,2.4,2.54,4.38,4.81,5.49,1.3.63,2.71.95,4.12.95,1.07,0,2.14-.18,3.17-.55l10.76-3.84c2.38-.85,4.32-2.63,5.38-4.93,1.06-2.3,1.15-4.93.25-7.29l-2.01-5.29c-7.69-21.59-12.22-43.38-13.28-63.59l56.94-2.92c2.5-.11,4.85-1.21,6.54-3.05,1.69-1.85,2.57-4.29,2.46-6.78l-.51-11.28c-.23-5.05-4.4-8.99-9.4-8.99-.14,0-.29,0-.43,0l-54.34,2.85c3.17-22.19,14.02-52.19,39.84-52.19,10.25,0,22.53,3.69,35.52,10.67.08.04,5.37,2.69,5.37,2.69,1.35.68,2.79.99,4.2.99,3.42,0,6.72-1.87,8.39-5.12l5.13-9.99c2.36-4.59.58-10.23-3.99-12.63Z" style="fill: #1b4a3f;"/>
      <path d="M623.26,828.86c-1.7-1.84-4.05-2.94-6.56-3.03l-10.81-.44h-.38c-5.01,0-9.18,3.94-9.4,8.98l-.25,5.38c-.57,15.73-7.27,39.63-17.88,41.66-.39.06-.77.11-1.15.11-5.82,0-13.37-9.62-19.46-24.45,18.91-20.33,38.69-51.48,41.73-82.97,1.99-19.9-4.72-37.67-17.52-46.35-.08-.05-.14-.09-.22-.14-5.54-3.55-11.96-5.43-18.55-5.43-2.23,0-4.47.22-6.67.64-13.47,2.57-30.9,12.16-37.61,43.24-1.22,5.67-1.96,11.44-2.35,17.09-.6,8.37-.46,16.43,0,23.4.36,5.57.91,10.44,1.41,14.19,1.46,9.9,3.38,19.2,5.73,27.7-.02.02-.05.04-.07.06-4.44,3.63-7.07,9.02-7.07,14.76v16.62c0,2.01,1.35,3.84,3.32,4.23.01,0,.02,0,.04,0,.58.11,1.18.16,1.76.16,1.93,0,3.81-.58,5.41-1.7l4.32-3.03c1.08-.74,2.15-1.46,3.2-2.2,7.33,14.75,20.25,33.81,42.16,33.81,2.42,0,4.9-.24,7.39-.71,31.49-6.03,41.06-48.2,41.72-69.52l.24-5.29c.11-2.5-.78-4.94-2.48-6.8ZM547.81,822.26c-.33-1.91-.61-3.81-.88-5.73-3.64-26.32-1.12-56.36,10.72-63.22,1.24-.57,2.54-1.11,3.81-1.37.47-.08.91-.13,1.32-.13.9,0,1.57.19,2.23.64,2.95,1.99,5.59,9.28,4.68,18.82-1.27,12.95-8.48,32.32-21.88,50.98Z" style="fill: #1b4a3f;"/>
      <path d="M472.92,783.02h33.84v113.56h-33.84v-113.56ZM477.01,764.28c-2.58-2.65-3.86-7-3.86-13.06s1.28-10.14,3.86-12.72c2.57-2.57,6.89-3.86,12.95-3.86s10.33,1.29,12.83,3.86c2.5,2.58,3.75,6.81,3.75,12.72s-1.25,10.41-3.75,13.06c-2.5,2.65-6.78,3.97-12.83,3.97s-10.37-1.32-12.95-3.97Z" style="fill: #1b4a3f;"/>
    </g>
  </g>
  <g>
    <path d="M565.44,394.62v36.1c0,40.38-32.73,73.11-73.11,73.11H215.04c-40.38,0-73.11-32.73-73.11-73.11v-218.97c0-25.92,4.64-50.75,13.19-73.69,3.95-10.8,8.84-21.17,14.46-31.06,13.85-24.25,32.3-45.45,54.19-62.45,8.84-6.92,18.23-13.12,28.13-18.52,25.63-14.1,54.52-23.02,85.25-25.37,5.44-.43,10.95-.65,16.53-.65s10.73.18,15.98.62c30.74,2.28,59.66,11.13,85.33,25.16,9.9,5.36,19.32,11.53,28.16,18.41,21.93,16.96,40.49,38.17,54.33,62.38,5.69,9.86,10.58,20.23,14.57,31.03,8.66,23.09,13.38,48.06,13.38,74.16v182.87ZM528.94,430.83v-14.57l-.07-.07c-11.42-4.82-23.78-7.29-36.43-7.29-39.4,0-73.22,24.07-87.61,58.32,0,.04.04.11.11.11h87.5c11.2,0,21.24-5.07,27.98-13.09.04-.07.11-.14.18-.22,1.41-1.74,2.72-3.66,3.81-5.62.04-.07.07-.14.11-.18,2.79-5.18,4.42-11.13,4.42-17.4ZM528.94,377.48v-37.55l-.07-.07c-11.89-2.61-24.1-3.95-36.43-3.95-61.84,0-118.53,33.89-147.96,88.52-4.93,9.21-9.03,18.81-12.11,28.74-1.49,4.64-2.75,9.32-3.81,14.06-.04.04,0,.11.07.11h37.48l.07-.07c15.88-54.73,66.44-94.86,126.25-94.86,12.61,0,24.83,1.78,36.39,5.15.04.04.11,0,.11-.07ZM528.94,302.55v-36.86s-.04-.07-.07-.11c-12.03-1.81-24.21-2.72-36.43-2.72-20.37,0-40.34,2.61-59.66,7.58-7.14,1.78-14.17,3.91-21.06,6.42-32.66,11.64-62.64,30.23-87.65,54.62-5.29,5.18-10.37,10.62-15.19,16.27-4.82,5.62-9.39,11.49-13.7,17.65-1.74,2.46-3.41,4.97-5.04,7.5-7.47,11.42-13.88,23.52-19.25,36.03-2.46,5.58-4.64,11.31-6.63,17.11-3.48,10.37-6.31,20.91-8.37,31.61-.62,3.19-1.16,6.34-1.67,9.57-.04.07,0,.11.07.11h36.9l.07-.07c.76-4.39,1.7-8.74,2.79-13.01,4.17-16.6,10.33-32.4,18.3-47.12,34.54-64.12,102.29-107.76,180.08-107.76,12.4,0,24.61,1.12,36.39,3.3.07,0,.11-.04.11-.11ZM528.94,216.83v-5.07c0-15.04-1.92-29.72-5.51-43.68-1.52-5.98-7.58-8.77-13.23-6.27l-.07.04c-9.06,4.02-17.43-6.6-11.53-14.54,2.39-3.19,4.93-6.38,7.54-9.53,2.5-2.97,2.9-7.14,1.05-10.55-8.77-15.84-19.9-30.19-32.95-42.59-4.24-3.99-11.06-3.12-14.35,1.7-4.6,6.71-9.42,13.05-14.46,18.99-6.38,7.47-18.49,1.52-16.6-8.12,1.96-10.08,4.71-20.33,8.19-30.52,1.56-4.49-.54-9.42-4.75-11.56-16.2-8.16-33.82-13.88-52.41-16.67-5.33-.8-10.29,3.08-10.84,8.45-1.27,12.25-3.37,24.21-6.34,35.45-2.46,9.42-15.91,9.42-18.41.04-2.97-11.27-5.07-23.2-6.34-35.41-.58-5.4-5.55-9.24-10.87-8.41-18.59,2.83-36.21,8.55-52.38,16.78-4.2,2.14-6.27,7.07-4.71,11.53,3.48,10.19,6.27,20.44,8.23,30.48,1.88,9.64-10.19,15.62-16.56,8.16-5.04-5.91-9.86-12.22-14.43-18.88-3.3-4.82-10.15-5.69-14.39-1.67-13.01,12.43-24.14,26.79-32.8,42.66-1.88,3.41-1.45,7.58,1.01,10.55,2.65,3.12,5.15,6.27,7.5,9.46,5.04,6.71-.25,15.41-7.5,15.41-1.27,0-2.61-.29-3.95-.87-5.4-2.39-11.74.58-13.23,6.31-3.52,13.85-5.4,28.35-5.4,43.28v5.07c0,5.26,4.28,9.53,9.53,9.53h68.83c4.28,0,7.97-2.86,9.17-7,.51-1.85,1.09-3.66,1.74-5.47.36-1.05.76-2.07,1.2-3.08,3.59-8.99,8.52-17.25,14.61-24.54,16.71-20.12,41.94-32.95,70.17-32.95,14.46,0,28.13,3.37,40.23,9.35,6.52,3.19,12.61,7.18,18.2,11.82,2.03,1.67,3.95,3.44,5.84,5.33,8.84,8.74,15.88,19.28,20.55,31.03.36.91.72,1.81,1.05,2.75.69,1.92,1.3,3.84,1.88,5.8,1.2,4.1,4.89,6.96,9.13,6.96h68.83c5.26,0,9.53-4.28,9.53-9.53ZM405.34,226.36c-.04-.11-.07-.18-.11-.29l-.07-.25-.11-.25c-.14-.4-.29-.76-.43-1.16-2.83-7.03-6.96-13.3-12.4-18.67-1.23-1.27-2.28-2.21-3.3-3.04l-.11-.11-.11-.07c-3.33-2.79-6.96-5.15-10.73-7l-.11-.04-.11-.07c-7.5-3.7-15.59-5.55-24.07-5.55-16.31,0-31.64,7.18-42.08,19.75-3.7,4.42-6.63,9.35-8.77,14.72l-.18.43-.18.43c-.07.18-.18.4-.25.62l-.04.14-.07.14c-.04.07-.04.18-.07.25h103.3ZM354.56,263.01c.07-.04.04-.14-.04-.14h-176.02s-.07.04-.07.07v22.36l.07.07c32.62,14.03,61.98,34.14,86.78,58.94.04,0,.07,0,.11-.04,5.76-8.16,11.89-15.98,18.52-23.45,5.07-5.84,10.48-11.49,16.06-16.85,16.42-15.8,34.72-29.58,54.59-40.96ZM245.74,376.72v-.07c-2.07-2.21-4.17-4.35-6.27-6.52-17.91-17.94-38.53-32.95-60.93-44.4-.04,0-.11.04-.11.07v41.94s.04.04.04.07c19.61,12.47,36.9,28.16,51.18,46.32.04.04.11.04.14,0,4.42-12.94,9.79-25.45,15.95-37.41ZM217.94,463.06v-.07c-4.78-9.21-10.44-17.98-16.89-26.17-6.78-8.63-14.28-16.49-22.47-23.56-.07-.04-.14,0-.14.07v17.51c0,6.27,1.63,12.22,4.42,17.4.04.04.07.11.11.18,1.09,1.96,2.39,3.88,3.81,5.62.07.07.14.14.18.22,6.74,8.01,16.78,13.09,27.98,13.09h2.43c.18-1.41.36-2.86.58-4.28Z" style="fill: #1b4a3f;"/>
    <path d="M528.94,416.26v14.57c0,6.27-1.63,12.22-4.42,17.4-.04.04-.07.11-.11.18-1.09,1.96-2.39,3.88-3.81,5.62-.07.07-.14.14-.18.22-6.74,8.01-16.78,13.09-27.98,13.09h-87.5c-.07,0-.11-.07-.11-.11,14.39-34.25,48.21-58.32,87.61-58.32,12.65,0,25.01,2.46,36.43,7.29l.07.07Z" style="fill: #2c8d66;"/>
    <path d="M528.94,339.93v37.55c0,.07-.07.11-.11.07-11.56-3.37-23.78-5.15-36.39-5.15-59.81,0-110.37,40.13-126.25,94.86l-.07.07h-37.48c-.07,0-.11-.07-.07-.11,1.05-4.75,2.32-9.42,3.81-14.06,3.08-9.93,7.18-19.54,12.11-28.74,29.43-54.62,86.12-88.52,147.96-88.52,12.32,0,24.54,1.34,36.43,3.95l.07.07Z" style="fill: #2c8d66;"/>
    <path d="M528.94,211.76v5.07c0,5.26-4.28,9.53-9.53,9.53h-68.83c-4.24,0-7.94-2.86-9.13-6.96-.58-1.96-1.2-3.88-1.88-5.8-.33-.94-.69-1.85-1.05-2.75-4.68-11.74-11.71-22.29-20.55-31.03-1.88-1.88-3.81-3.66-5.84-5.33-5.58-4.64-11.67-8.63-18.2-11.82-12.11-5.98-25.77-9.35-40.23-9.35-28.24,0-53.46,12.83-70.17,32.95-6.09,7.29-11.02,15.55-14.61,24.54-.43,1.01-.83,2.03-1.2,3.08-.65,1.81-1.23,3.62-1.74,5.47-1.2,4.13-4.89,7-9.17,7h-68.83c-5.26,0-9.53-4.28-9.53-9.53v-5.07c0-14.93,1.88-29.43,5.4-43.28,1.49-5.73,7.83-8.7,13.23-6.31,1.34.58,2.68.87,3.95.87,7.25,0,12.54-8.7,7.5-15.41-2.36-3.19-4.86-6.34-7.5-9.46-2.46-2.97-2.9-7.14-1.01-10.55,8.66-15.88,19.79-30.23,32.8-42.66,4.24-4.02,11.09-3.15,14.39,1.67,4.57,6.67,9.39,12.98,14.43,18.88,6.38,7.47,18.45,1.49,16.56-8.16-1.96-10.04-4.75-20.3-8.23-30.48-1.56-4.46.51-9.39,4.71-11.53,16.17-8.23,33.78-13.96,52.38-16.78,5.33-.83,10.29,3.01,10.87,8.41,1.27,12.22,3.37,24.14,6.34,35.41,2.5,9.39,15.95,9.39,18.41-.04,2.97-11.24,5.07-23.2,6.34-35.45.54-5.36,5.51-9.24,10.84-8.45,18.59,2.79,36.21,8.52,52.41,16.67,4.2,2.14,6.31,7.07,4.75,11.56-3.48,10.19-6.23,20.44-8.19,30.52-1.88,9.64,10.22,15.59,16.6,8.12,5.04-5.94,9.86-12.29,14.46-18.99,3.3-4.82,10.11-5.69,14.35-1.7,13.05,12.4,24.18,26.75,32.95,42.59,1.85,3.41,1.45,7.58-1.05,10.55-2.61,3.15-5.15,6.34-7.54,9.53-5.91,7.94,2.46,18.56,11.53,14.54l.07-.04c5.65-2.5,11.71.29,13.23,6.27,3.59,13.96,5.51,28.64,5.51,43.68Z" style="fill: #ffb930;"/>
    <path d="M354.52,262.86c.07,0,.11.11.04.14-19.86,11.38-38.17,25.16-54.59,40.96-5.58,5.36-10.98,11.02-16.06,16.85-6.63,7.47-12.76,15.3-18.52,23.45-.04.04-.07.04-.11.04-24.79-24.79-54.15-44.91-86.78-58.94l-.07-.07v-22.36s.04-.07.07-.07h176.02Z" style="fill: #1c6d4f;"/>
    <path d="M404.61,224.41c.14.4.29.76.43,1.16l.11.25.07.25c.04.11.07.18.11.29h-103.3c.04-.07.04-.18.07-.25l.07-.14.04-.14c.07-.22.18-.43.25-.62l.18-.43.18-.43c2.14-5.36,5.07-10.29,8.77-14.72,10.44-12.58,25.77-19.75,42.08-19.75,8.48,0,16.56,1.85,24.07,5.55l.11.07.11.04c3.77,1.85,7.39,4.2,10.73,7l.11.07.11.11c1.01.83,2.07,1.78,3.3,3.04,5.44,5.36,9.57,11.64,12.4,18.67Z" style="fill: #f28500;"/>
    <path d="M255.89,457.66c2.07-10.69,4.89-21.24,8.37-31.61,1.99-5.8,4.17-11.53,6.63-17.11,5.36-12.51,11.78-24.61,19.25-36.03,1.63-2.54,3.3-5.04,5.04-7.5,4.31-6.16,8.88-12.03,13.7-17.65,4.82-5.65,9.9-11.09,15.19-16.27,25.01-24.39,54.99-42.99,87.65-54.62,6.89-2.5,13.92-4.64,21.06-6.42,19.32-4.97,39.29-7.58,59.66-7.58,12.22,0,24.39.91,36.43,2.72.04.04.04.07.07.11v36.86c0,.07-.04.11-.11.11-11.78-2.17-24-3.3-36.39-3.3-77.79,0-145.53,43.64-180.08,107.76-7.97,14.72-14.14,30.52-18.3,47.12-1.09,4.28-2.03,8.63-2.79,13.01l-.07.07h-36.9c-.07,0-.11-.04-.07-.11.51-3.23,1.05-6.38,1.67-9.57Z" style="fill: #2c8d66;"/>
    <path d="M229.79,414.12s-.11.04-.14,0c-14.28-18.16-31.57-33.85-51.18-46.32,0-.04,0-.07-.04-.07v-41.94s.07-.07.11-.07c22.4,11.45,43.03,26.46,60.93,44.4,2.1,2.17,4.2,4.31,6.27,6.52v.07c-6.16,11.96-11.53,24.47-15.95,37.41Z" style="fill: #1c6d4f;"/>
    <path d="M217.94,462.98v.07c-.22,1.41-.4,2.86-.58,4.28h-2.43c-11.2,0-21.24-5.07-27.98-13.09-.04-.07-.11-.14-.18-.22-1.41-1.74-2.72-3.66-3.81-5.62-.04-.07-.07-.14-.11-.18-2.79-5.18-4.42-11.13-4.42-17.4v-17.51c0-.07.07-.11.14-.07,8.19,7.07,15.7,14.93,22.47,23.56,6.45,8.19,12.11,16.96,16.89,26.17Z" style="fill: #1c6d4f;"/>
  </g>
</svg>