<?xml version="1.0" encoding="UTF-8"?>
<svg id="Camada_1" xmlns="http://www.w3.org/2000/svg" viewBox="0 0 1432.86 497.08">
  <g>
    <g>
      <path d="M892.16,116.02v68.47c0,13.48-3.05,24.42-9.11,32.83-6.09,8.42-15.3,12.62-27.63,12.62-9.93,0-17.36-2-22.32-6.03-4.94-4.01-8.22-9.58-9.81-16.7-1.59-7.1-2.39-17.2-2.39-30.31v-60.89h-42.1v60.89c0,20.4,1.49,36.34,4.5,47.84,1.71,6.59,4.38,12.28,8.01,17.08,8.46-2.79,17.51-4.25,27.09-4.25,18.23,0,36.9,4.4,56.72,13.4.08-.04.14-.08.21-.14,8.98-6.26,14.58-15.38,16.83-27.36l-1.96,32.83h44.33V116.02h-42.37Z" style="fill: #1b4a3f;"/>
      <path d="M946.2,59.9v196.43h42.1V59.9h-42.1Z" style="fill: #1b4a3f;"/>
      <polygon points="1084.45 117.14 1062 117.14 1062 59.9 1019.62 59.9 1019.62 117.14 997.17 117.14 997.17 152.22 1019.62 152.22 1019.62 256.33 1062 256.33 1062 152.22 1084.45 152.22 1084.45 117.14" style="fill: #1b4a3f;"/>
      <path d="M1092.23,116.02v140.3h41.81V116.02h-41.81ZM1129.13,64.9c-3.1-3.18-8.38-4.77-15.86-4.77s-12.82,1.59-16,4.77c-3.18,3.18-4.77,8.42-4.77,15.71s1.59,12.88,4.77,16.13c3.18,3.28,8.51,4.93,16,4.93s12.76-1.65,15.86-4.93c3.08-3.26,4.62-8.65,4.62-16.13s-1.53-12.53-4.62-15.71Z" style="fill: #1b4a3f;"/>
      <path d="M1243.16,116.02l-30.02,94.85-30.31-94.85h-42.08l47.41,140.3h49.66l47.71-140.3h-42.37Z" style="fill: #1b4a3f;"/>
      <path d="M617.73,180.38c.54-17.03,6.46-35.95,15.4-49.43,13.36,9.06,30.64,15.3,48.33,17.22,4.58.5,9.37.76,14.23.76,14.99,0,65.02-2.93,79.97-40.47,5.12-12.7,3.78-27.38-3.47-38.3-11.27-16.95-34.07-21.78-46.68-23.15-3.61-.39-7.29-.6-10.94-.6-25.83,0-52.94,10.18-76.54,28.37.54-3.01,1.88-5.74,3.92-7.74l4.79-4.67c2.11-2.06,3.32-4.89,3.34-7.83.02-2.95-1.16-5.78-3.24-7.85l-9.66-9.62c-2.15-2.15-4.96-3.22-7.78-3.22s-5.57,1.05-7.7,3.14c0,0-4.95,4.83-5.02,4.89-6.19,6.38-10.57,14.43-12.72,23.27-2.06,8.44-1.98,17.18.19,26.08,1.12,4.5,2.72,8.78,4.77,12.86-1.51,2.02-3.01,4.11-4.44,6.32-12.92,18.5-21.2,44.16-22.19,68.55-1.24,25.54,5.51,48.19,19.53,65.51,14.39,17.74,35.41,28.58,60.82,31.36,3.43.37,7.06.56,10.78.56,30.27,0,71.64-12.97,92.15-37.76.04-.06,4.38-5.51,4.38-5.51,3.72-4.69,3.05-11.48-1.55-15.32l-10.08-8.44c-2-1.67-4.5-2.58-7.08-2.58-.33,0-.66.02-.97.04-2.93.27-5.6,1.67-7.49,3.92l-4.13,4.95c-12.51,14.2-41.03,25.31-65,25.31-2.4,0-4.71-.12-6.87-.35-32.56-3.55-50.91-25.99-49.08-60.02.02-.08.02-.16.02-.23ZM714.67,82.16c2.42,0,4.89.14,7.27.39,11.29,1.22,18.95,4.52,20.73,7.19.74,1.11,1.07,3.41.23,5.51-5.39,13.48-28.76,18.27-47.12,18.27h-.02c-3.53,0-7.06-.17-10.18-.52-10.57-1.14-20.25-4.11-28.22-8.57,17.49-14.1,38.2-22.26,57.31-22.26Z" style="fill: #1b4a3f;"/>
      <path d="M1421.98,197.17c-.06-.08-.1-.17-.16-.25-2.68-4.11-5.28-7.54-7.99-10.53,1.98-17.08,1.36-32.02-1.86-44.41-7.83-30.06-30.25-47.3-61.51-47.3-22.32,0-44.2,10.65-57.17,27.79l-2.93,3.55c-1.82,2.21-2.68,5.04-2.39,7.87.31,2.85,1.73,5.45,3.96,7.23l7.68,6.15c1.9,1.51,4.25,2.33,6.65,2.33.43,0,.87-.02,1.3-.08,2.85-.35,5.43-1.82,7.17-4.09l2.89-3.8c7.23-9.58,20.03-15.77,32.62-15.77,7.31,0,14.68,2.15,21.29,6.24,4.69,3.14,8.18,9.11,10.36,17.84,1.24,4.81,1.96,10.12,2.15,15.67-10.9-4.48-23.04-6.98-34.69-6.98-23.27,0-43.44,10.61-55.37,29.11-7.49,11.75-9.95,26.47-6.92,41.6,1.22,5.68,3.26,10.92,5.99,15.61,4.81,1.44,9.39,3.55,13.65,6.28,0,0,.43.27.54.33,6.34,4.32,11.71,10.03,15.96,16.76,5.72,1.73,11.91,2.64,18.44,2.64,25.99,0,46.6-14.64,59.65-41.77,1.34,8.4-.14,14.91-.85,17.41l-1.32,4.62c-1.59,5.57,1.55,11.38,7.08,13.11l9.25,2.85c1.03.31,2.07.48,3.14.48,1.73,0,3.43-.43,4.98-1.24,2.5-1.34,4.38-3.61,5.2-6.32l1.55-5.04c.04-.17.1-.35.14-.52,3.51-14.04,4.89-35.39-8.49-57.36ZM1352.22,238.23c-3.33,1.01-6.9,1.53-10.34,1.53-7.89,0-21.56-2.19-24.53-16.99-1.4-6.9-.43-12.92,3.01-18.36,6.13-9.81,15.82-14.56,29.65-14.56,10.94,0,20.59,2.75,29.88,8.59-5.24,18.07-16.08,36.48-27.67,39.79Z" style="fill: #1b4a3f;"/>
    </g>
    <path d="M1219.91,329.66v28.91c-.56-8.61-.74-18.58,0-28.91Z" style="fill: #1b4a3f;"/>
    <g>
      <path d="M957.4,345.08c7.48,13,11.22,30.92,11.22,53.74s-3.74,41.49-11.22,54.86c-7.48,13.38-19.64,20.06-36.48,20.06-13.66,0-25.35-3.18-35.08-9.54-9.73-6.36-17.03-15.2-21.89-26.52-4.87-11.32-7.29-24.18-7.29-38.59s2.43-27.12,7.29-38.16c4.86-11.04,12.11-19.69,21.75-25.96,9.63-6.27,21.37-9.4,35.22-9.4,16.84,0,29,6.5,36.48,19.5ZM907.31,375.8c-5.52,5.43-8.28,13.47-8.28,24.13s2.76,18.38,8.28,23.71c5.51,5.33,13.61,8,24.27,8s19.03-2.67,24.56-8c5.51-5.33,8.28-13.23,8.28-23.71s-2.76-18.47-8.28-23.99c-5.52-5.52-13.71-8.28-24.56-8.28s-18.76,2.71-24.27,8.14ZM946.46,287.46h35.92l-28.9,31.54h-21.61l14.59-31.54ZM1006.51,469.81h-42.09v-140.31h42.09v140.31Z" style="fill: #1b4a3f;"/>
      <path d="M1033.87,344.23c12.63-12.44,31.19-18.66,55.7-18.66,16.46,0,30.45,3.42,41.95,10.24,11.5,6.83,20.06,16.79,25.68,29.89l-28.06,16c-2.99-6.36-7.86-11.13-14.59-14.31-6.73-3.18-15.06-4.77-24.98-4.77-11.97,0-21.09,3.28-27.36,9.82-6.27,6.55-9.4,15.34-9.4,26.38,0,13.47,2.99,23.15,8.98,29.05,5.98,5.89,15.25,8.84,27.78,8.84,9.91,0,18.24-1.59,24.98-4.77,6.73-3.18,11.6-7.86,14.59-14.03l28.06,15.71c-5.61,13.1-14.17,23.06-25.68,29.89-11.51,6.83-25.49,10.24-41.95,10.24-24.88,0-43.54-6.31-55.98-18.94-12.44-12.63-18.66-31.19-18.66-55.7s6.31-42.42,18.94-54.86Z" style="fill: #1b4a3f;"/>
      <path d="M886.8,269.88l-6.01-3.16c-22.32-11.77-42.74-17.49-62.42-17.49-45.98,0-77.62,38.38-85.86,103.28l-7.02.26c-3.1.12-6.03,1.46-8.13,3.74s-3.21,5.31-3.07,8.41l.63,13.93c.28,6.24,5.43,11.11,11.62,11.11.15,0,.31,0,.46,0l4.34-.17c1.37,29.02,7.65,59.09,18.72,89.57l2.17,6.5c.99,2.97,3.13,5.41,5.95,6.78,1.6.78,3.34,1.17,5.09,1.17,1.32,0,2.65-.23,3.91-.68l13.3-4.75c2.94-1.05,5.34-3.25,6.65-6.09,1.31-2.84,1.42-6.09.31-9.01l-2.49-6.53c-9.5-26.67-15.1-53.59-16.4-78.57l70.35-3.61c3.09-.14,5.99-1.49,8.08-3.77,2.08-2.28,3.18-5.3,3.04-8.38l-.63-13.93c-.28-6.24-5.43-11.11-11.61-11.11-.18,0-.35,0-.53.01l-67.14,3.52c3.92-27.41,17.32-64.48,49.22-64.48,12.66,0,27.84,4.56,43.88,13.18.1.05,6.64,3.32,6.64,3.32,1.67.84,3.44,1.23,5.19,1.23,4.23,0,8.3-2.31,10.36-6.33l6.33-12.35c2.91-5.68.71-12.64-4.93-15.61Z" style="fill: #1b4a3f;"/>
      <path d="M1352.2,386.14c-2.09-2.27-5-3.63-8.11-3.74l-13.36-.54h-.46c-6.19,0-11.34,4.87-11.62,11.09l-.31,6.65c-.7,19.43-8.98,48.97-22.09,51.47-.48.08-.95.14-1.42.14-7.19,0-16.52-11.89-24.05-30.21,23.37-25.11,47.8-63.61,51.56-102.51,2.46-24.59-5.84-46.54-21.64-57.27-.1-.06-.17-.12-.27-.17-6.85-4.38-14.78-6.71-22.92-6.71-2.75,0-5.53.27-8.24.8-16.64,3.18-38.18,15.03-46.46,53.43-1.51,7-2.42,14.14-2.91,21.12-.74,10.34-.56,20.3,0,28.91.45,6.88,1.12,12.9,1.75,17.53,1.8,12.24,4.17,23.72,7.08,34.23-.03.02-.06.05-.08.07-5.49,4.49-8.74,11.15-8.74,18.24v20.53c0,2.48,1.67,4.75,4.11,5.23.01,0,.03,0,.04,0,.72.14,1.45.19,2.17.19,2.39,0,4.71-.72,6.69-2.09l5.33-3.74c1.34-.91,2.66-1.8,3.96-2.71,9.06,18.23,25.02,41.77,52.09,41.77,2.99,0,6.05-.29,9.13-.87,38.9-7.45,50.73-59.55,51.55-85.89l.29-6.54c.14-3.08-.97-6.11-3.06-8.4ZM1258.98,377.99c-.41-2.37-.76-4.71-1.09-7.08-4.5-32.52-1.38-69.64,13.24-78.11,1.53-.7,3.14-1.38,4.71-1.69.58-.1,1.12-.16,1.63-.16,1.11,0,1.94.23,2.75.79,3.65,2.46,6.9,11.46,5.78,23.25-1.57,16-10.47,39.93-27.03,62.99Z" style="fill: #1b4a3f;"/>
      <path d="M1166.45,329.5h41.81v140.31h-41.81v-140.31ZM1171.51,306.35c-3.18-3.27-4.77-8.65-4.77-16.14s1.59-12.53,4.77-15.71c3.18-3.18,8.51-4.77,16-4.77s12.77,1.59,15.85,4.77c3.09,3.18,4.63,8.42,4.63,15.71s-1.54,12.86-4.63,16.14c-3.09,3.27-8.37,4.91-15.85,4.91s-12.82-1.64-16-4.91Z" style="fill: #1b4a3f;"/>
    </g>
  </g>
  <g>
    <path d="M447.05,190.14c-1.78-7.01-8.87-10.26-15.47-7.33l-.09.04c-10.61,4.69-20.4-7.71-13.48-17.01,2.79-3.73,5.76-7.46,8.81-11.14,2.94-3.47,3.39-8.36,1.24-12.34-10.26-18.51-23.29-35.31-38.55-49.79-4.95-4.67-12.92-3.66-16.78,1.99-5.38,7.84-11.03,15.26-16.93,22.2-7.46,8.74-21.62,1.78-19.41-9.49,2.29-11.78,5.51-23.78,9.58-35.7,1.82-5.25-.62-11.01-5.55-13.52-18.94-9.53-39.55-16.24-61.3-19.5-6.21-.92-12.02,3.6-12.66,9.88-1.48,14.33-3.94,28.33-7.41,41.46-2.89,11.01-18.62,11.01-21.53.04-3.49-13.18-5.93-27.13-7.43-41.42-.66-6.32-6.47-10.8-12.71-9.83-21.75,3.3-42.36,10.01-61.26,19.63-4.91,2.51-7.33,8.27-5.51,13.48,4.07,11.91,7.33,23.91,9.62,35.65,2.21,11.27-11.91,18.28-19.37,9.53-5.89-6.9-11.53-14.29-16.88-22.09-3.86-5.64-11.87-6.64-16.82-1.95-15.21,14.55-28.24,31.32-38.35,49.9-2.21,3.99-1.71,8.85,1.18,12.34,3.09,3.64,6.02,7.33,8.76,11.06,5.89,7.84-.28,18.02-8.76,18.02-1.48,0-3.06-.34-4.63-1.03-6.32-2.79-13.73.69-15.47,7.39-4.11,16.18-6.32,33.15-6.32,50.61v5.94c0,6.15,5.01,11.14,11.16,11.14h80.5c4.99,0,9.32-3.34,10.71-8.18.6-2.16,1.29-4.26,2.04-6.38.43-1.24.9-2.42,1.39-3.62,4.2-10.5,9.96-20.16,17.1-28.69,19.54-23.53,49.04-38.52,82.06-38.52,16.91,0,32.89,3.94,47.05,10.93,7.63,3.73,14.76,8.4,21.28,13.82,2.38,1.95,4.63,4.03,6.83,6.23,10.33,10.22,18.55,22.54,24.02,36.27.43,1.07.86,2.12,1.24,3.24.79,2.25,1.52,4.5,2.21,6.77,1.39,4.8,5.72,8.14,10.67,8.14h80.5c6.15,0,11.16-4.99,11.16-11.14v-5.94c0-17.59-2.25-34.75-6.45-51.08ZM410.8,386.4c-61.39,0-118.44,28.56-155.34,76.28.94-.04,1.89-.06,2.83-.11.96-.04,1.91-.11,2.83-.15.19,0,.36-.02.54-.02.13,0,.26-.02.39-.02.19-.02.36-.02.56-.04,1.35-.09,2.7-.19,4.03-.3.11,0,.21-.02.32-.02.21-.02.43-.04.64-.06,1.5-.13,2.98-.28,4.48-.45.69-.06,1.39-.15,2.08-.24.06,0,.15-.02.21-.02.94-.11,1.86-.21,2.79-.36.19,0,.39-.04.58-.06.49-.06,1.01-.13,1.5-.21,1.35-.19,2.7-.39,4.03-.62.88-.13,1.74-.28,2.59-.43.45-.09.9-.17,1.35-.26.06,0,.13-.02.19-.04.13-.02.24-.04.36-.06,1.03-.17,2.01-.36,3.02-.58.04,0,.06-.02.11-.02.17-.02.36-.06.54-.11.3-.04.62-.11.92-.19,1.48-.3,2.96-.62,4.41-.96.26-.06.54-.11.79-.17,1.31-.3,2.59-.62,3.88-.94,1.76-.45,3.49-.92,5.23-1.41,1.82-.51,3.62-1.05,5.42-1.61,1.26-.39,2.53-.79,3.79-1.22.86-.28,1.69-.56,2.53-.86,1.05-.36,2.1-.73,3.13-1.11.71-.24,1.41-.49,2.1-.77.13-.04.26-.11.39-.15.21-.09.41-.15.62-.24,1.11-.41,2.25-.86,3.34-1.31.09-.04.19-.06.28-.11,1.03-.41,2.06-.84,3.06-1.24.51-.24,1.03-.45,1.54-.66,1.46-.62,2.91-1.26,4.35-1.93.99-.45,1.97-.9,2.94-1.37.73-.34,1.44-.69,2.14-1.03.77-.36,1.54-.75,2.29-1.16.84-.41,1.69-.84,2.53-1.29.79-.41,1.59-.81,2.38-1.24.75-.41,1.52-.81,2.27-1.24.79-.43,1.59-.88,2.38-1.33.96-.54,1.93-1.11,2.89-1.67.47-.28.94-.56,1.41-.86.84-.47,1.65-.99,2.46-1.5,1.03-.62,2.04-1.26,3.04-1.91,1.37-.88,2.72-1.76,4.07-2.68,1.29-.86,2.57-1.76,3.86-2.66,1.48-1.05,2.96-2.1,4.39-3.19,3-2.23,5.91-4.52,8.76-6.88.71-.58,1.41-1.18,2.1-1.78.71-.58,1.41-1.18,2.1-1.8,1.35-1.18,2.68-2.36,3.99-3.56.13-.13.28-.26.41-.39.11-.09.19-.19.3-.28,1.16-1.07,2.31-2.14,3.43-3.24,1.33-1.29,2.66-2.57,3.92-3.9.64-.64,1.29-1.31,1.93-1.97.64-.66,1.26-1.33,1.89-2.01,1.09-1.16,2.16-2.34,3.24-3.54.28-.3.54-.6.81-.9.06-.09.15-.17.24-.26.11-.11.19-.24.3-.34.92-1.05,1.84-2.12,2.74-3.21-.54-.02-1.07-.02-1.61-.02ZM308.81,257.95l-.09-.28-.13-.3c-.15-.47-.32-.9-.49-1.37-3.32-8.21-8.14-15.56-14.51-21.83-1.44-1.48-2.68-2.57-3.86-3.56l-.13-.13-.13-.09c-3.9-3.26-8.14-6.02-12.53-8.16l-.13-.04-.13-.09c-8.78-4.33-18.23-6.49-28.15-6.49-19.07,0-37,8.4-49.22,23.1-4.33,5.19-7.76,10.95-10.26,17.21l-.21.51-.21.51c-.06.21-.19.47-.28.73l-.04.15-.09.17c-.04.09-.04.21-.09.3h120.8c-.04-.13-.09-.21-.13-.34ZM254.58,462.72c.28,0,.58-.02.86-.02v-.02c-.3.02-.58.04-.86.04ZM249.53,300.97H43.67s-.09.04-.09.09v.09h205.97c.09-.04.04-.17-.02-.17ZM194.42,341c16.86-15.13,35.33-28.47,55.09-39.83-1.09.19-19.05,4.09-55.09,39.83Z" style="fill: #1b4a3f;"/>
    <path d="M248.54,0C111.26,0,0,111.26,0,248.54c0,13.16,1.03,26.08,3,38.67.73,4.69,1.61,9.34,2.59,13.93v.02c2.87,13.39,6.83,26.38,11.81,38.87,17.95,45.34,48.85,84.14,88.15,111.82,13.73,9.71,28.5,18.02,44.12,24.79,13.03,5.66,26.63,10.22,40.71,13.58,14.21,3.43,28.9,5.61,43.94,6.45,4.71.28,9.45.41,14.23.41,12.43,0,24.66-.92,36.6-2.7,51.51-7.56,97.87-30.96,134-65.09,12.34-11.63,23.48-24.53,33.23-38.48,28.2-40.3,44.72-89.35,44.72-142.27C497.08,111.26,385.82,0,248.54,0ZM249.53,300.97c.06,0,.11.13.02.17-.02,0-.02.02-.04.02-19.75,11.36-38.22,24.7-55.09,39.83-.71.71-1.41,1.41-2.12,2.12-2.87,2.89-5.85,5.98-8.93,9.28-.77.81-1.56,1.65-2.34,2.51-1.59,1.69-3.17,3.45-4.82,5.25-43.24-27.9-86.32-46.56-123.84-59.01h-8.78v-.09s.04-.09.09-.09h205.86ZM188.14,258.29c.04-.09.04-.21.09-.3l.09-.17.04-.15c.09-.26.21-.51.28-.73l.21-.51.21-.51c2.51-6.26,5.94-12.02,10.26-17.21,12.21-14.7,30.15-23.1,49.22-23.1,9.92,0,19.37,2.16,28.15,6.49l.13.09.13.04c4.39,2.14,8.63,4.91,12.53,8.16l.13.09.13.13c1.18.99,2.42,2.08,3.86,3.56,6.36,6.28,11.18,13.63,14.51,21.83.17.47.34.9.49,1.37l.13.3.09.28c.04.13.09.21.13.34h-120.8ZM125.34,423.74c-.94-.64-1.84-1.31-2.76-1.99-.06-.04-.15-.11-.21-.15-.06-.04-.13-.09-.17-.13-.88-.62-1.76-1.29-2.64-1.97-.06-.04-.15-.11-.21-.15l-.02-.02c-1.01-.75-1.99-1.52-2.98-2.29-.94-.73-1.86-1.48-2.79-2.23-.09-.06-.17-.15-.26-.21-.66-.54-1.35-1.09-1.99-1.63-.06-.06-.11-.11-.17-.15-.11-.09-.21-.17-.32-.28-.92-.77-1.84-1.54-2.76-2.36-2.16-1.86-4.26-3.79-6.34-5.74-.56-.54-1.11-1.05-1.67-1.61-.86-.79-1.69-1.63-2.53-2.46-.69-.69-1.39-1.37-2.08-2.08-.19-.21-.41-.43-.64-.66-.71-.71-1.39-1.44-2.06-2.16-1.63-1.69-3.21-3.43-4.76-5.21-.09-.11-.17-.19-.26-.3-.58-.62-1.14-1.29-1.69-1.93-.66-.77-1.31-1.54-1.95-2.31-.54-.62-1.05-1.26-1.54-1.89-.84-1.01-1.65-2.01-2.46-3.04-.02-.02-.04-.04-.04-.06-.9-1.14-1.78-2.29-2.66-3.45-.28-.36-.58-.75-.84-1.14-.84-1.09-1.65-2.23-2.46-3.34-.11-.15-.21-.32-.32-.47-.15-.21-.3-.41-.43-.62-.54-.71-1.03-1.41-1.5-2.14-.11-.17-.24-.34-.34-.51-.21-.3-.43-.62-.64-.94-.94-1.37-1.86-2.76-2.74-4.16-1.8-2.79-3.51-5.59-5.14-8.46,26.18,10.22,54.38,23.65,82.68,41.33-6.45,8.25-13.22,17.2-20.29,26.93ZM255.44,462.69c-.28,0-.58.02-.86.02.28,0,.56-.02.86-.04v.02ZM409.66,389.63c-.11.11-.19.24-.3.34-.09.09-.17.17-.24.26-.28.3-.54.6-.81.9-1.07,1.2-2.14,2.38-3.24,3.54-.62.69-1.24,1.35-1.89,2.01-.64.66-1.29,1.33-1.93,1.97-1.26,1.33-2.59,2.61-3.92,3.9-1.11,1.09-2.27,2.16-3.43,3.24-.11.09-.19.19-.3.28-.13.13-.28.26-.41.39-1.31,1.2-2.64,2.38-3.99,3.56-.69.62-1.39,1.22-2.1,1.8-.69.6-1.39,1.2-2.1,1.78-2.85,2.36-5.76,4.65-8.76,6.88-1.44,1.09-2.91,2.14-4.39,3.19-1.29.9-2.57,1.8-3.86,2.66-1.35.92-2.7,1.8-4.07,2.68-1.01.64-2.01,1.29-3.04,1.91-.81.51-1.63,1.03-2.46,1.5-.47.3-.94.58-1.41.86-.96.56-1.93,1.14-2.89,1.67-.79.45-1.59.9-2.38,1.33-.75.43-1.52.84-2.27,1.24-.79.43-1.59.84-2.38,1.24-.84.45-1.69.88-2.53,1.29-.75.41-1.52.79-2.29,1.16-.71.34-1.41.69-2.14,1.03-.96.47-1.95.92-2.94,1.37-1.44.66-2.89,1.31-4.35,1.93-.51.21-1.03.43-1.54.66-1.01.41-2.04.84-3.06,1.24-.09.04-.19.06-.28.11-1.09.45-2.23.9-3.34,1.31-.21.09-.41.15-.62.24-.13.04-.26.11-.39.15-.69.28-1.39.54-2.1.77-1.03.39-2.08.75-3.13,1.11-.84.3-1.67.58-2.53.86-1.26.43-2.53.84-3.79,1.22-1.8.56-3.6,1.09-5.42,1.61-1.74.49-3.47.96-5.23,1.41-1.29.32-2.57.64-3.88.94-.26.06-.54.11-.79.17-1.46.34-2.94.66-4.41.96-.3.09-.62.15-.92.19-.17.04-.36.09-.54.11-.04,0-.06.02-.11.02-1.01.21-1.99.41-3.02.58-.13.02-.24.04-.36.06-.06.02-.13.04-.19.04-.45.09-.9.17-1.35.26-.86.15-1.71.3-2.59.43-1.33.24-2.68.43-4.03.62-.49.09-1.01.15-1.5.21-.19.02-.39.06-.58.06-.92.15-1.84.26-2.79.36-.06,0-.15.02-.21.02-.69.09-1.39.17-2.08.24-1.5.17-2.98.32-4.48.45-.21.02-.43.04-.64.06-.11,0-.21.02-.32.02-1.33.11-2.68.21-4.03.3-.19.02-.36.02-.56.04-.13,0-.26.02-.39.02-.17,0-.34.02-.54.02-.92.04-1.86.11-2.83.15-.94.04-1.89.06-2.83.11,36.9-47.72,93.95-76.28,155.34-76.28.54,0,1.07,0,1.61.02-.9,1.09-1.82,2.16-2.74,3.21ZM453.5,311.02c-.3.96-.58,1.91-.9,2.85-.06.24-.13.47-.21.71-.09.3-.19.58-.28.86-.02.02-.02.04-.02.06-.04.15-.11.28-.15.43-.32.99-.64,1.97-1.01,2.94-.26.75-.51,1.5-.79,2.25-.24.64-.47,1.31-.73,1.95-.09.21-.15.45-.24.66-.28.77-.58,1.52-.88,2.29-.19.54-.41,1.07-.62,1.61-.3.73-.58,1.44-.88,2.14-.02.06-.04.11-.06.17-.06.15-.13.32-.19.47-.34.84-.69,1.65-1.05,2.46-.47,1.11-.94,2.23-1.46,3.32-.49,1.09-.99,2.19-1.52,3.28-.21.47-.45.94-.66,1.41-.24.49-.47.96-.71,1.44-.49,1.05-1.01,2.08-1.54,3.11-9.45-1.18-19.07-1.76-28.8-1.76-65.05,0-124.12,26.12-167.25,68.41-11.23,11.01-21.38,23.14-30.27,36.19-2.34,3.39-4.56,6.86-6.71,10.37-.9-.15-1.82-.34-2.72-.56-.04,0-.06-.02-.11-.02-.75-.15-1.48-.3-2.21-.47-.13-.04-.28-.06-.41-.11-1.8-.41-3.6-.84-5.4-1.29-.39-.09-.75-.17-1.11-.28-.36-.11-.73-.19-1.09-.3-.75-.19-1.5-.41-2.23-.6-1.16-.32-2.29-.64-3.43-.99-1.14-.32-2.27-.66-3.41-1.03-1.11-.34-2.25-.71-3.36-1.09-.77-.24-1.54-.51-2.31-.77-1.29-.45-2.57-.9-3.84-1.37-.19-.06-.36-.13-.54-.19-1.46-.54-2.91-1.09-4.35-1.67-1.44-.56-2.87-1.14-4.29-1.74-.41-.17-.79-.34-1.2-.51,3.02-5.44,6.26-10.78,9.66-15.98,1.91-2.98,3.86-5.89,5.89-8.78.04-.06.11-.15.15-.21,4.99-7.11,10.31-13.91,15.88-20.42,4.65-5.44,9.49-10.71,14.53-15.79,1.05-1.09,2.14-2.16,3.24-3.24,29.25-28.54,64.3-50.29,102.48-63.89,8.06-2.91,16.28-5.42,24.64-7.5,22.58-5.81,45.96-8.87,69.76-8.87,14.29,0,28.54,1.07,42.62,3.19.04.04.04.09.09.13v6.73ZM442.34,258.29h-80.5c-4.95,0-9.28-3.34-10.67-8.14-.69-2.27-1.41-4.52-2.21-6.77-.39-1.11-.81-2.16-1.24-3.24-5.46-13.73-13.69-26.05-24.02-36.27-2.21-2.21-4.46-4.29-6.83-6.23-6.51-5.42-13.65-10.09-21.28-13.82-14.16-6.98-30.15-10.93-47.05-10.93-33.02,0-62.52,15-82.06,38.52-7.13,8.53-12.9,18.19-17.1,28.69-.49,1.2-.96,2.38-1.39,3.62-.75,2.12-1.44,4.22-2.04,6.38-1.39,4.84-5.72,8.18-10.71,8.18H54.74c-6.15,0-11.16-4.99-11.16-11.14v-5.94c0-17.46,2.21-34.43,6.32-50.61,1.74-6.71,9.15-10.18,15.47-7.39,1.56.69,3.15,1.03,4.63,1.03,8.48,0,14.66-10.18,8.76-18.02-2.74-3.73-5.68-7.41-8.76-11.06-2.89-3.49-3.39-8.36-1.18-12.34,10.11-18.58,23.14-35.35,38.35-49.9,4.95-4.69,12.96-3.69,16.82,1.95,5.36,7.8,10.99,15.19,16.88,22.09,7.46,8.74,21.58,1.74,19.37-9.53-2.29-11.74-5.55-23.74-9.62-35.65-1.82-5.21.6-10.97,5.51-13.48,18.9-9.62,39.51-16.33,61.26-19.63,6.23-.96,12.04,3.51,12.71,9.83,1.5,14.29,3.94,28.24,7.43,41.42,2.91,10.97,18.64,10.97,21.53-.04,3.47-13.13,5.94-27.13,7.41-41.46.64-6.28,6.45-10.8,12.66-9.88,21.75,3.26,42.36,9.96,61.3,19.5,4.93,2.51,7.37,8.27,5.55,13.52-4.07,11.91-7.28,23.91-9.58,35.7-2.21,11.27,11.96,18.23,19.41,9.49,5.89-6.94,11.55-14.36,16.93-22.2,3.86-5.66,11.83-6.66,16.78-1.99,15.26,14.48,28.28,31.28,38.55,49.79,2.14,3.99,1.69,8.87-1.24,12.34-3.04,3.69-6.02,7.41-8.81,11.14-6.92,9.3,2.87,21.7,13.48,17.01l.09-.04c6.6-2.94,13.69.32,15.47,7.33,4.2,16.33,6.45,33.49,6.45,51.08v5.94c0,6.15-5.01,11.14-11.16,11.14Z" style="fill: #1b4a3f;"/>
    <path d="M412.41,386.42c-.9,1.09-1.82,2.16-2.74,3.21-.11.11-.19.24-.3.34-.09.09-.17.17-.24.26-.28.3-.54.6-.81.9-1.07,1.2-2.14,2.38-3.24,3.54-.62.69-1.24,1.35-1.89,2.01-.64.66-1.29,1.33-1.93,1.97-1.26,1.33-2.59,2.61-3.92,3.9-1.11,1.09-2.27,2.16-3.43,3.24-.11.09-.19.19-.3.28-.13.13-.28.26-.41.39-1.31,1.2-2.64,2.38-3.99,3.56-.69.62-1.39,1.22-2.1,1.8-.69.6-1.39,1.2-2.1,1.78-2.85,2.36-5.76,4.65-8.76,6.88-1.44,1.09-2.91,2.14-4.39,3.19-1.29.9-2.57,1.8-3.86,2.66-1.35.92-2.7,1.8-4.07,2.68-1.01.64-2.01,1.29-3.04,1.91-.81.51-1.63,1.03-2.46,1.5-.47.3-.94.58-1.41.86-.96.56-1.93,1.14-2.89,1.67-.79.45-1.59.9-2.38,1.33-.75.43-1.52.84-2.27,1.24-.79.43-1.59.84-2.38,1.24-.84.45-1.69.88-2.53,1.29-.75.41-1.52.79-2.29,1.16-.71.34-1.41.69-2.14,1.03-.96.47-1.95.92-2.94,1.37-1.44.66-2.89,1.31-4.35,1.93-.51.21-1.03.43-1.54.66-1.01.41-2.04.84-3.06,1.24-.09.04-.19.06-.28.11-1.09.45-2.23.9-3.34,1.31-.21.09-.41.15-.62.24-.13.04-.26.11-.39.15-.69.28-1.39.54-2.1.77-1.03.39-2.08.75-3.13,1.11-.84.3-1.67.58-2.53.86-1.26.43-2.53.84-3.79,1.22-1.8.56-3.6,1.09-5.42,1.61-1.74.49-3.47.96-5.23,1.41-1.29.32-2.57.64-3.88.94-.26.06-.54.11-.79.17-1.46.34-2.94.66-4.41.96-.3.09-.62.15-.92.19-.17.04-.36.09-.54.11-.04,0-.06.02-.11.02-1.01.21-1.99.41-3.02.58-.13.02-.24.04-.36.06-.06.02-.13.04-.19.04-.45.09-.9.17-1.35.26-.86.15-1.71.3-2.59.43-1.33.24-2.68.43-4.03.62-.49.09-1.01.15-1.5.21-.19.02-.39.06-.58.06-.92.15-1.84.26-2.79.36-.06,0-.15.02-.21.02-.69.09-1.39.17-2.08.24-1.5.17-2.98.32-4.48.45-.21.02-.43.04-.64.06-.11,0-.21.02-.32.02-1.33.11-2.68.21-4.03.3-.19.02-.36.02-.56.04-.13,0-.26.02-.39.02-.17,0-.34.02-.54.02-.92.04-1.86.11-2.83.15-.94.04-1.89.06-2.83.11,36.9-47.72,93.95-76.28,155.34-76.28.54,0,1.07,0,1.61.02Z" style="fill: #2c8d66;"/>
    <path d="M249.5,301.17c-19.75,11.36-38.22,24.7-55.09,39.83,36.04-35.74,53.99-39.64,55.09-39.83Z" style="fill: #1c6d4f;"/>
    <path d="M249.55,301.14H43.58v-.09s.04-.09.09-.09h205.86c.06,0,.11.13.02.17Z" style="fill: #1c6d4f;"/>
    <path d="M254.58,462.72c.28,0,.58-.02.86-.02v-.02c-.3.02-.58.04-.86.04Z" style="fill: #1b4a3f;"/>
    <g>
      <path d="M453.5,241.22v5.94c0,6.15-5.01,11.14-11.16,11.14h-80.5c-4.95,0-9.28-3.34-10.67-8.14-.69-2.27-1.41-4.52-2.21-6.77-.39-1.11-.81-2.16-1.24-3.24-5.46-13.73-13.69-26.05-24.02-36.27-2.21-2.21-4.46-4.29-6.83-6.23-6.51-5.42-13.65-10.09-21.28-13.82-14.16-6.98-30.15-10.93-47.05-10.93-33.02,0-62.52,15-82.06,38.52-7.13,8.53-12.9,18.19-17.1,28.69-.49,1.2-.96,2.38-1.39,3.62-.75,2.12-1.44,4.22-2.04,6.38-1.39,4.84-5.72,8.18-10.71,8.18H54.74c-6.15,0-11.16-4.99-11.16-11.14v-5.94c0-17.46,2.21-34.43,6.32-50.61,1.74-6.71,9.15-10.18,15.47-7.39,1.56.69,3.15,1.03,4.63,1.03,8.48,0,14.66-10.18,8.76-18.02-2.74-3.73-5.68-7.41-8.76-11.06-2.89-3.49-3.39-8.36-1.18-12.34,10.11-18.58,23.14-35.35,38.35-49.9,4.95-4.69,12.96-3.69,16.82,1.95,5.36,7.8,10.99,15.19,16.88,22.09,7.46,8.74,21.58,1.74,19.37-9.53-2.29-11.74-5.55-23.74-9.62-35.65-1.82-5.21.6-10.97,5.51-13.48,18.9-9.62,39.51-16.33,61.26-19.63,6.23-.96,12.04,3.51,12.71,9.83,1.5,14.29,3.94,28.24,7.43,41.42,2.91,10.97,18.64,10.97,21.53-.04,3.47-13.13,5.94-27.13,7.41-41.46.64-6.28,6.45-10.8,12.66-9.88,21.75,3.26,42.36,9.96,61.3,19.5,4.93,2.51,7.37,8.27,5.55,13.52-4.07,11.91-7.28,23.91-9.58,35.7-2.21,11.27,11.96,18.23,19.41,9.49,5.89-6.94,11.55-14.36,16.93-22.2,3.86-5.66,11.83-6.66,16.78-1.99,15.26,14.48,28.28,31.28,38.55,49.79,2.14,3.99,1.69,8.87-1.24,12.34-3.04,3.69-6.02,7.41-8.81,11.14-6.92,9.3,2.87,21.7,13.48,17.01l.09-.04c6.6-2.94,13.69.32,15.47,7.33,4.2,16.33,6.45,33.49,6.45,51.08Z" style="fill: #ffb930;"/>
      <path d="M308.94,258.29h-120.8c.04-.09.04-.21.09-.3l.09-.17.04-.15c.09-.26.21-.51.28-.73l.21-.51.21-.51c2.51-6.26,5.94-12.02,10.26-17.21,12.21-14.7,30.15-23.1,49.22-23.1,9.92,0,19.37,2.16,28.15,6.49l.13.09.13.04c4.39,2.14,8.63,4.91,12.53,8.16l.13.09.13.13c1.18.99,2.42,2.08,3.86,3.56,6.36,6.28,11.18,13.63,14.51,21.83.17.47.34.9.49,1.37l.13.3.09.28c.04.13.09.21.13.34Z" style="fill: #f28500;"/>
      <path d="M453.5,304.3v6.73c-.3.96-.58,1.91-.9,2.85-.06.24-.13.47-.21.71-.09.3-.19.58-.28.86-.02.02-.02.04-.02.06-.04.15-.11.28-.15.43-.32.99-.64,1.97-1.01,2.94-.26.75-.51,1.5-.79,2.25-.24.64-.47,1.31-.73,1.95-.09.21-.15.45-.24.66-.28.77-.58,1.52-.88,2.29-.19.54-.41,1.07-.62,1.61-.3.73-.58,1.44-.88,2.14-.02.06-.04.11-.06.17-.06.15-.13.32-.19.47-.34.84-.69,1.65-1.05,2.46-.47,1.11-.94,2.23-1.46,3.32-.49,1.09-.99,2.19-1.52,3.28-.21.47-.45.94-.66,1.41-.24.49-.47.96-.71,1.44-.49,1.05-1.01,2.08-1.54,3.11-9.45-1.18-19.07-1.76-28.8-1.76-65.05,0-124.12,26.12-167.25,68.41-11.23,11.01-21.38,23.14-30.27,36.19-2.34,3.39-4.56,6.86-6.71,10.37-.9-.15-1.82-.34-2.72-.56-.04,0-.06-.02-.11-.02-.75-.15-1.48-.3-2.21-.47-.13-.04-.28-.06-.41-.11-1.8-.41-3.6-.84-5.4-1.29-.39-.09-.75-.17-1.11-.28-.36-.11-.73-.19-1.09-.3-.75-.19-1.5-.41-2.23-.6-1.16-.32-2.29-.64-3.43-.99-1.14-.32-2.27-.66-3.41-1.03-1.11-.34-2.25-.71-3.36-1.09-.77-.24-1.54-.51-2.31-.77-1.29-.45-2.57-.9-3.84-1.37-.19-.06-.36-.13-.54-.19-1.46-.54-2.91-1.09-4.35-1.67-1.44-.56-2.87-1.14-4.29-1.74-.41-.17-.79-.34-1.2-.51,3.02-5.44,6.26-10.78,9.66-15.98,1.91-2.98,3.86-5.89,5.89-8.78.04-.06.11-.15.15-.21,4.99-7.11,10.31-13.91,15.88-20.42,4.65-5.44,9.49-10.71,14.53-15.79,1.05-1.09,2.14-2.16,3.24-3.24,29.25-28.54,64.3-50.29,102.48-63.89,8.06-2.91,16.28-5.42,24.64-7.5,22.58-5.81,45.96-8.87,69.76-8.87,14.29,0,28.54,1.07,42.62,3.19.04.04.04.09.09.13Z" style="fill: #2c8d66;"/>
      <path d="M62.95,355.48c26.18,10.22,54.38,23.65,82.68,41.33-6.45,8.25-13.22,17.2-20.29,26.93-.94-.64-1.84-1.31-2.76-1.99-.06-.04-.15-.11-.21-.15-.06-.04-.13-.09-.17-.13-.88-.62-1.76-1.29-2.64-1.97-.06-.04-.15-.11-.21-.15l-.02-.02c-1.01-.75-1.99-1.52-2.98-2.29-.94-.73-1.86-1.48-2.79-2.23-.09-.06-.17-.15-.26-.21-.66-.54-1.35-1.09-1.99-1.63-.06-.06-.11-.11-.17-.15-.11-.09-.21-.17-.32-.28-.92-.77-1.84-1.54-2.76-2.36-2.16-1.86-4.26-3.79-6.34-5.74-.56-.54-1.11-1.05-1.67-1.61-.86-.79-1.69-1.63-2.53-2.46-.69-.69-1.39-1.37-2.08-2.08-.19-.21-.41-.43-.64-.66-.71-.71-1.39-1.44-2.06-2.16-1.63-1.69-3.21-3.43-4.76-5.21-.09-.11-.17-.19-.26-.3-.58-.62-1.14-1.29-1.69-1.93-.66-.77-1.31-1.54-1.95-2.31-.54-.62-1.05-1.26-1.54-1.89-.84-1.01-1.65-2.01-2.46-3.04-.02-.02-.04-.04-.04-.06-.9-1.14-1.78-2.29-2.66-3.45-.28-.36-.58-.75-.84-1.14-.84-1.09-1.65-2.23-2.46-3.34-.11-.15-.21-.32-.32-.47-.15-.21-.3-.41-.43-.62-.51-.71-1.01-1.41-1.5-2.14-.11-.17-.24-.34-.34-.51-.21-.3-.43-.62-.64-.94-.94-1.37-1.86-2.76-2.74-4.16-1.8-2.79-3.51-5.59-5.14-8.46Z" style="fill: #1c6d4f;"/>
      <path d="M249.55,301.15s-.02.02-.04.02c-1.09.19-19.05,4.09-55.09,39.83-.71.69-1.41,1.41-2.12,2.12-2.87,2.89-5.85,5.98-8.93,9.28-.77.81-1.56,1.65-2.34,2.51-1.59,1.69-3.17,3.45-4.82,5.25-43.24-27.9-86.32-46.56-123.84-59.01h197.18Z" style="fill: #1c6d4f;"/>
    </g>
  </g>
</svg>