<svg width="118" height="40" viewBox="0 0 118 40" fill="none" xmlns="http://www.w3.org/2000/svg">
<g clip-path="url(#clip0_6_489)">
<path d="M73.4724 9.33453V14.8455C73.4724 15.9305 73.2207 16.8096 72.7206 17.4888C72.2205 18.165 71.4593 18.5062 70.4433 18.5062C69.6255 18.5062 69.0152 18.3464 68.6063 18.0206C68.2005 17.6978 67.93 17.2491 67.7979 16.6774C67.6658 16.1057 67.6029 15.2943 67.6029 14.2369V9.33761H64.1366V14.2369C64.1366 15.8783 64.2592 17.16 64.5077 18.0882C64.6493 18.6199 64.8695 19.0748 65.1683 19.4621C65.8634 19.2377 66.6089 19.1209 67.3984 19.1209C68.8988 19.1209 70.437 19.4744 72.0695 20.1998C72.0758 20.1967 72.0821 20.1936 72.0884 20.1875C72.8276 19.6834 73.2899 18.9488 73.4755 17.9868L73.3151 20.6301H76.967V9.33453H73.4787H73.4724Z" fill="white"/>
<path d="M77.9233 4.8194V20.627H81.3896V4.8194H77.9233Z" fill="white"/>
<path d="M89.3068 9.42674H87.4604V4.8194H83.9689V9.42674H82.1194V12.2483H83.9689V20.627H87.4604V12.2483H89.3068V9.42674Z" fill="white"/>
<path d="M89.9485 9.33453V20.6239H93.3928V9.33453H89.9485ZM92.987 5.22203C92.7322 4.96692 92.2982 4.83783 91.6817 4.83783C91.0651 4.83783 90.6248 4.96692 90.3637 5.22203C90.1026 5.47714 89.9705 5.89823 89.9705 6.48529C89.9705 7.07235 90.1026 7.52109 90.3637 7.78235C90.6248 8.04668 91.0651 8.17885 91.6817 8.17885C92.2982 8.17885 92.7322 8.04668 92.987 7.78235C93.2418 7.52109 93.3676 7.08771 93.3676 6.48529C93.3676 5.88286 93.2418 5.47714 92.987 5.22203Z" fill="white"/>
<path d="M102.379 9.33453L99.9071 16.9663L97.4096 9.33453H93.9433L97.8468 20.6239H101.936L105.865 9.33453H102.376H102.379Z" fill="white"/>
<path d="M50.872 14.5167C50.9161 13.1458 51.4036 11.6244 52.1397 10.5394C53.2406 11.2678 54.6624 11.7719 56.1187 11.9256C56.4962 11.9656 56.8894 11.9871 57.292 11.9871C58.525 11.9871 62.6456 11.7504 63.8786 8.72905C64.3001 7.70553 64.19 6.52527 63.5924 5.64621C62.6645 4.28153 60.7866 3.89425 59.7486 3.7836C59.4529 3.75287 59.1478 3.73442 58.849 3.73442C56.7226 3.73442 54.4893 4.55508 52.5454 6.01812C52.5895 5.7753 52.6996 5.55708 52.8694 5.39418L53.2626 5.01919C53.4356 4.85322 53.5363 4.62577 53.5363 4.3891C53.5363 4.15244 53.4419 3.92499 53.2689 3.75594L52.4731 2.98139C52.2969 2.80927 52.0642 2.72321 51.8314 2.72321C51.5986 2.72321 51.3722 2.80619 51.196 2.97524C51.196 2.97524 50.7903 3.36252 50.7808 3.36866C50.2712 3.88196 49.9095 4.53049 49.7334 5.24049C49.5635 5.91976 49.5698 6.62362 49.7491 7.33977C49.8403 7.70246 49.9724 8.0467 50.1423 8.37558C50.0165 8.53848 49.8938 8.70753 49.7774 8.8858C48.7142 10.3734 48.0317 12.4389 47.9499 14.4029C47.8492 16.4592 48.4028 18.2818 49.5572 19.6742C50.7431 21.1034 52.4731 21.9732 54.5648 22.1976C54.8479 22.2284 55.1468 22.2437 55.4519 22.2437C57.9462 22.2437 61.3528 21.1987 63.0419 19.2039C63.0451 19.1978 63.4037 18.7613 63.4037 18.7613C63.7088 18.3833 63.6553 17.8362 63.2747 17.5288L62.4443 16.8495C62.2807 16.7143 62.0731 16.6405 61.8624 16.6405C61.8341 16.6405 61.8089 16.6405 61.7837 16.6436C61.5415 16.6651 61.3214 16.7788 61.1672 16.9602L60.8275 17.3567C59.7989 18.5001 57.4493 19.3945 55.4739 19.3945C55.2757 19.3945 55.087 19.3853 54.9077 19.3668C52.2277 19.081 50.7148 17.2768 50.8657 14.5382C50.8657 14.532 50.8657 14.5259 50.8657 14.5197L50.872 14.5167ZM58.8553 6.61133C59.0535 6.61133 59.2579 6.62362 59.4529 6.64206C60.3809 6.74042 61.0131 7.00475 61.1609 7.2199C61.2207 7.30904 61.249 7.49345 61.1798 7.6625C60.7363 8.74749 58.8113 9.13169 57.2983 9.13169C57.0089 9.13169 56.7164 9.11632 56.4584 9.08866C55.5871 8.99645 54.7913 8.75671 54.1339 8.40017C55.5745 7.26601 57.2794 6.60825 58.8521 6.60825L58.8553 6.61133Z" fill="white"/>
<path d="M117.104 15.866C117.104 15.866 117.094 15.8506 117.091 15.8445C116.871 15.5125 116.657 15.2359 116.434 14.9961C116.597 13.6222 116.547 12.4205 116.279 11.4215C115.635 9.00259 113.788 7.61639 111.212 7.61639C109.375 7.61639 107.573 8.47393 106.503 9.85398L106.261 10.1398C106.11 10.3181 106.041 10.5455 106.066 10.773C106.091 11.0035 106.208 11.2125 106.393 11.3539L107.025 11.8488C107.183 11.9717 107.374 12.0362 107.573 12.0362C107.607 12.0362 107.645 12.0362 107.68 12.0301C107.916 12.0024 108.126 11.8826 108.271 11.7012L108.51 11.3939C109.105 10.6224 110.158 10.1245 111.196 10.1245C111.797 10.1245 112.404 10.2966 112.948 10.6255C113.335 10.8775 113.621 11.3601 113.801 12.0608C113.905 12.4481 113.961 12.8753 113.977 13.321C113.08 12.9614 112.08 12.7585 111.121 12.7585C109.205 12.7585 107.544 13.613 106.56 15.1006C105.943 16.0473 105.742 17.2307 105.99 18.4478C106.091 18.9058 106.258 19.3269 106.484 19.7049C106.881 19.8217 107.258 19.9908 107.607 20.2121C107.607 20.2121 107.642 20.2336 107.651 20.2397C108.173 20.587 108.617 21.045 108.966 21.589C109.438 21.7274 109.948 21.8011 110.485 21.8011C112.624 21.8011 114.323 20.6239 115.399 18.4386C115.509 19.1148 115.386 19.6373 115.329 19.8402L115.219 20.2121C115.087 20.6608 115.348 21.128 115.801 21.2663L116.562 21.4968C116.647 21.5214 116.732 21.5368 116.82 21.5368C116.962 21.5368 117.104 21.503 117.229 21.4384C117.434 21.3309 117.591 21.1495 117.657 20.9282L117.786 20.5225C117.786 20.5225 117.796 20.4948 117.799 20.4795C118.088 19.3484 118.201 17.6302 117.1 15.8629L117.104 15.866ZM111.36 19.1701C111.086 19.25 110.791 19.293 110.507 19.293C109.856 19.293 108.73 19.1179 108.488 17.9253C108.372 17.369 108.453 16.8864 108.736 16.4469C109.24 15.657 110.039 15.2758 111.177 15.2758C112.077 15.2758 112.873 15.4971 113.637 15.9674C113.206 17.4212 112.313 18.9027 111.357 19.1701H111.36Z" fill="white"/>
<path d="M100.464 26.5283V28.855C100.417 28.1635 100.404 27.3613 100.464 26.5283Z" fill="white"/>
<path d="M78.8449 27.77C79.4614 28.8151 79.7697 30.2566 79.7697 32.0946C79.7697 33.9326 79.4614 35.4326 78.8449 36.5083C78.2284 37.5841 77.2281 38.122 75.841 38.122C74.7149 38.122 73.7523 37.8669 72.9534 37.3536C72.1513 36.8433 71.5505 36.1303 71.151 35.2205C70.7515 34.3107 70.5502 33.2749 70.5502 32.1161C70.5502 30.9574 70.7515 29.9339 71.151 29.0456C71.5505 28.1573 72.1481 27.4627 72.9408 26.9555C73.7335 26.4515 74.7023 26.1994 75.841 26.1994C77.2281 26.1994 78.2284 26.7219 78.8449 27.77ZM74.7212 30.2412C74.2651 30.6777 74.0386 31.3262 74.0386 32.1837C74.0386 33.0413 74.2651 33.6622 74.7212 34.0925C75.1741 34.5228 75.841 34.7348 76.7185 34.7348C77.5961 34.7348 78.285 34.5197 78.7411 34.0925C79.194 33.6622 79.4237 33.029 79.4237 32.1837C79.4237 31.3385 79.1972 30.6961 78.7411 30.2535C78.285 29.8109 77.6119 29.5865 76.7185 29.5865C75.8252 29.5865 75.1741 29.8048 74.7212 30.2412ZM77.9453 23.132H80.9021L78.5209 25.6708H76.7406L77.9421 23.132H77.9453ZM82.89 37.8054H79.4237V26.5129H82.89V37.8054Z" fill="white"/>
<path d="M85.1422 27.7025C86.1833 26.7005 87.712 26.1995 89.7283 26.1995C91.084 26.1995 92.2353 26.473 93.182 27.0232C94.1288 27.5734 94.8334 28.3756 95.2958 29.4268L92.9839 30.7146C92.7385 30.2044 92.3359 29.8202 91.7823 29.562C91.2287 29.3069 90.543 29.1778 89.7252 29.1778C88.7375 29.1778 87.9888 29.4421 87.473 29.9677C86.9571 30.4964 86.6992 31.2033 86.6992 32.0916C86.6992 33.1766 86.9445 33.9542 87.4384 34.4275C87.9322 34.9009 88.6934 35.1375 89.7252 35.1375C90.543 35.1375 91.2287 35.0084 91.7823 34.7533C92.3359 34.4982 92.7385 34.1202 92.9839 33.6253L95.2958 34.8886C94.8334 35.9428 94.1288 36.745 93.182 37.2921C92.2353 37.8423 91.084 38.1159 89.7283 38.1159C87.6806 38.1159 86.1424 37.6087 85.117 36.5914C84.0916 35.574 83.5789 34.0802 83.5789 32.11C83.5789 30.1398 84.0979 28.6983 85.139 27.6963L85.1422 27.7025Z" fill="white"/>
<path d="M73.032 21.7181L72.5382 21.463C70.7012 20.5163 69.0184 20.0553 67.3985 20.0553C63.6113 20.0553 61.0068 23.1443 60.3274 28.3663L59.7486 28.3879C59.4938 28.3971 59.2516 28.5047 59.0786 28.6891C58.9056 28.8735 58.8144 29.1163 58.827 29.3653L58.8773 30.4871C58.8993 30.9881 59.324 31.3816 59.8335 31.3816C59.8461 31.3816 59.8587 31.3816 59.8713 31.3816L60.2299 31.3693C60.3431 33.7052 60.859 36.1241 61.7712 38.5769L61.9505 39.0994C62.0322 39.3391 62.2084 39.5359 62.4412 39.6465C62.5733 39.708 62.718 39.7418 62.8595 39.7418C62.9696 39.7418 63.0765 39.7233 63.1803 39.6865L64.275 39.3053C64.5172 39.2193 64.7153 39.0441 64.8223 38.8166C64.9292 38.5892 64.9387 38.3279 64.8475 38.0913L64.643 37.5657C63.8598 35.4203 63.4005 33.2534 63.2936 31.2432L69.0876 30.9513C69.3424 30.939 69.5814 30.8314 69.7513 30.647C69.9243 30.4626 70.0124 30.2197 69.9998 29.9738L69.9463 28.852C69.9243 28.351 69.4996 27.9576 68.9901 27.9576C68.9743 27.9576 68.9618 27.9576 68.946 27.9576L63.4163 28.2403C63.7402 26.0335 64.8412 23.0521 67.4708 23.0521C68.5151 23.0521 69.7639 23.4178 71.085 24.1125C71.0944 24.1155 71.6323 24.3799 71.6323 24.3799C71.7707 24.4475 71.9154 24.4782 72.0601 24.4782C72.4092 24.4782 72.7426 24.2907 72.9125 23.968L73.4347 22.9752C73.6737 22.5173 73.4944 21.9579 73.0289 21.7181H73.032Z" fill="white"/>
<path d="M111.36 31.0742C111.187 30.8929 110.948 30.7822 110.693 30.773L109.592 30.73H109.554C109.045 30.73 108.62 31.1203 108.598 31.6213L108.573 32.1561C108.516 33.7206 107.834 36.0965 106.755 36.2963C106.714 36.3024 106.676 36.3086 106.638 36.3086C106.047 36.3086 105.276 35.3527 104.657 33.8774C106.582 31.8549 108.595 28.7598 108.903 25.6278C109.105 23.6484 108.422 21.881 107.12 21.0204C107.11 21.0143 107.104 21.0112 107.098 21.0051C106.535 20.6516 105.88 20.4641 105.21 20.4641C104.984 20.4641 104.754 20.4856 104.531 20.5287C103.16 20.7838 101.385 21.7366 100.703 24.8286C100.577 25.3911 100.505 25.9659 100.464 26.5283C100.404 27.3613 100.417 28.1635 100.464 28.8551C100.502 29.4083 100.555 29.894 100.609 30.2659C100.756 31.2494 100.951 32.1746 101.19 33.0198C101.19 33.0198 101.187 33.0229 101.184 33.026C100.731 33.3887 100.464 33.9235 100.464 34.4921V36.1457C100.464 36.3455 100.602 36.5268 100.8 36.5668C100.8 36.5668 100.8 36.5668 100.804 36.5668C100.863 36.5791 100.923 36.5821 100.983 36.5821C101.178 36.5821 101.37 36.5237 101.533 36.4131L101.974 36.1119C102.084 36.0381 102.194 35.9674 102.301 35.8936C103.046 37.3598 104.361 39.2562 106.591 39.2562C106.837 39.2562 107.088 39.2316 107.343 39.1855C110.545 38.5861 111.52 34.3937 111.589 32.2729L111.615 31.7473C111.627 31.4984 111.536 31.2556 111.363 31.0711L111.36 31.0742ZM103.682 30.4165C103.647 30.2259 103.619 30.0384 103.594 29.8479C103.222 27.2322 103.48 24.2447 104.685 23.5623C104.811 23.507 104.943 23.4517 105.072 23.4271C105.119 23.4179 105.163 23.4148 105.207 23.4148C105.298 23.4148 105.368 23.4332 105.434 23.4793C105.733 23.676 106.003 24.4014 105.909 25.3512C105.78 26.639 105.047 28.5631 103.682 30.4195V30.4165Z" fill="white"/>
<path d="M96.0602 26.5161H99.5045V37.8085H96.0602V26.5161ZM96.4785 24.6534C96.2175 24.3891 96.0853 23.9588 96.0853 23.3564C96.0853 22.754 96.2175 22.3482 96.4785 22.0931C96.7396 21.838 97.18 21.7089 97.7965 21.7089C98.413 21.7089 98.8471 21.838 99.1019 22.0931C99.3567 22.3482 99.4825 22.7693 99.4825 23.3564C99.4825 23.9434 99.3567 24.3922 99.1019 24.6534C98.8471 24.9178 98.413 25.0499 97.7965 25.0499C97.18 25.0499 96.7396 24.9178 96.4785 24.6534Z" fill="white"/>
<path d="M36.8149 15.3005C36.667 14.738 36.0851 14.4737 35.5409 14.7103H35.5346C34.6602 15.0915 33.8549 14.0925 34.4243 13.3456C34.6539 13.0444 34.8993 12.7463 35.1509 12.4481C35.3931 12.1685 35.4308 11.775 35.2547 11.4554C34.4086 9.96467 33.3359 8.61535 32.0809 7.44738C31.672 7.0724 31.0177 7.15231 30.7 7.60721C30.2565 8.2373 29.791 8.83358 29.3066 9.39298C28.6932 10.0968 27.5262 9.53744 27.7087 8.62765C27.8974 7.6779 28.1616 6.71279 28.4982 5.75382C28.6492 5.33274 28.4478 4.86862 28.0421 4.66576C26.4819 3.89736 24.7833 3.35948 22.9936 3.09822C22.4808 3.02445 22.0027 3.38714 21.9493 3.89428C21.8266 5.04689 21.6253 6.17491 21.339 7.22916C21.1 8.11436 19.8072 8.11436 19.565 7.23223C19.2787 6.17183 19.0774 5.04996 18.9516 3.90043C18.8981 3.39329 18.42 3.0306 17.9042 3.11051C16.1144 3.37484 14.4158 3.9158 12.8588 4.69035C12.4562 4.89321 12.2549 5.35732 12.4058 5.77534C12.7424 6.7343 13.0098 7.69942 13.1985 8.64302C13.3809 9.54973 12.2171 10.1122 11.6037 9.41142C11.1193 8.8551 10.6538 8.26189 10.2134 7.63487C9.89573 7.17998 9.23518 7.10006 8.82941 7.47812C7.5775 8.64916 6.50489 9.99848 5.67134 11.4923C5.4889 11.8119 5.52979 12.2053 5.76885 12.485C6.02363 12.777 6.26583 13.0752 6.48916 13.3733C6.97357 14.0034 6.46715 14.8241 5.76885 14.8241C5.64617 14.8241 5.51721 14.7964 5.38824 14.7411C4.86923 14.5167 4.25586 14.7964 4.11432 15.3373C3.7746 16.6406 3.59531 18.0052 3.59531 19.4099V19.8863C3.59531 20.3811 4.00737 20.7838 4.51379 20.7838H11.1445C11.5566 20.7838 11.912 20.5133 12.0252 20.126C12.0756 19.9508 12.1322 19.7818 12.1919 19.6127C12.2265 19.5113 12.2674 19.4191 12.3052 19.3207C12.6512 18.4755 13.1262 17.6979 13.7144 17.0125C15.3249 15.1191 17.7532 13.9112 20.4709 13.9112C21.8643 13.9112 23.1791 14.2278 24.3461 14.7902C24.9752 15.0915 25.5603 15.4664 26.0982 15.9029C26.2932 16.0596 26.4788 16.2256 26.6612 16.4039C27.5105 17.2276 28.1899 18.2173 28.6397 19.3238C28.6743 19.4099 28.7089 19.4959 28.7435 19.5851C28.8096 19.7664 28.8693 19.9478 28.926 20.1291C29.0392 20.5164 29.3978 20.7838 29.8036 20.7838H36.4342C36.9407 20.7838 37.3527 20.3811 37.3527 19.8863V19.4099C37.3527 17.9929 37.1671 16.6129 36.8211 15.3005H36.8149ZM33.8298 31.0927C28.775 31.0927 24.0756 33.3917 21.0371 37.2307C21.1157 37.2276 21.1912 37.2245 21.2698 37.2215C21.3485 37.2184 21.4271 37.2122 21.5026 37.2092C21.5183 37.2092 21.5341 37.2092 21.5466 37.2092C21.5561 37.2092 21.5687 37.2092 21.5781 37.2092C21.5938 37.2092 21.6095 37.2092 21.6253 37.2061C21.7354 37.2 21.8486 37.1907 21.9556 37.1815C21.965 37.1815 21.9744 37.1815 21.9807 37.1815C21.9996 37.1815 22.0153 37.1784 22.0342 37.1754C22.1569 37.1661 22.2795 37.1539 22.4022 37.1385C22.4588 37.1323 22.5154 37.1262 22.5721 37.12C22.5784 37.12 22.5846 37.12 22.5909 37.12C22.6696 37.1108 22.7451 37.1016 22.8206 37.0893C22.8363 37.0893 22.852 37.0862 22.8677 37.0832C22.9086 37.077 22.9495 37.0739 22.9904 37.0647C23.1005 37.0493 23.2137 37.034 23.3207 37.0155C23.393 37.0063 23.4622 36.994 23.5346 36.9817C23.5723 36.9756 23.6101 36.9694 23.6447 36.9602C23.651 36.9602 23.6541 36.9602 23.6604 36.9571C23.6698 36.9571 23.6793 36.9541 23.6919 36.951C23.7768 36.9387 23.8586 36.9203 23.9404 36.9049C23.9435 36.9049 23.9466 36.9049 23.9498 36.9049C23.9624 36.9049 23.9812 36.8987 23.9938 36.8957C24.019 36.8926 24.0442 36.8864 24.0693 36.8803C24.192 36.8557 24.3115 36.8311 24.4342 36.8035C24.4562 36.7973 24.4782 36.7942 24.5003 36.7912C24.6072 36.7666 24.7141 36.742 24.8211 36.7143C24.9658 36.6774 25.1073 36.6406 25.252 36.6006C25.403 36.5606 25.5508 36.5176 25.6987 36.4715C25.8025 36.4408 25.9063 36.407 26.0101 36.3732C26.0793 36.3516 26.1485 36.327 26.2177 36.3055C26.3026 36.2748 26.3907 36.2471 26.4756 36.2164C26.5354 36.198 26.592 36.1764 26.6486 36.1549C26.6581 36.1519 26.6706 36.1457 26.6801 36.1426C26.699 36.1365 26.7147 36.1303 26.7304 36.1242C26.8216 36.0904 26.916 36.0566 27.0072 36.0197C27.0135 36.0166 27.0229 36.0135 27.0292 36.0105C27.1142 35.9767 27.1991 35.9428 27.2809 35.909C27.3218 35.8906 27.3658 35.8722 27.4067 35.8568C27.5262 35.8076 27.6457 35.7554 27.7653 35.7031C27.8471 35.6662 27.9288 35.6293 28.0075 35.5925C28.0672 35.5648 28.127 35.5371 28.1836 35.5095C28.2465 35.4787 28.3094 35.448 28.3724 35.4173C28.4416 35.3834 28.5108 35.3496 28.58 35.3128C28.646 35.2789 28.7121 35.2482 28.775 35.2113C28.8379 35.1775 28.9008 35.1468 28.9606 35.1099C29.0266 35.0761 29.0927 35.0392 29.1556 35.0023C29.2342 34.9593 29.3129 34.9132 29.3946 34.8671C29.4324 34.8456 29.4733 34.821 29.511 34.7995C29.5802 34.7626 29.6463 34.7195 29.7155 34.6796C29.8004 34.6304 29.8822 34.5782 29.9671 34.5259C30.0804 34.4552 30.1904 34.3845 30.3037 34.3108C30.4106 34.2431 30.5144 34.1694 30.6214 34.0956C30.7441 34.0126 30.8636 33.9266 30.9831 33.8374C31.2316 33.6592 31.4707 33.4747 31.7034 33.2842C31.7632 33.2381 31.8198 33.1889 31.8764 33.1397C31.9362 33.0936 31.9928 33.0444 32.0494 32.9953C32.1595 32.9 32.2696 32.8047 32.3766 32.7094C32.386 32.7002 32.3986 32.6879 32.4112 32.6787C32.4206 32.6725 32.4269 32.6633 32.4363 32.6572C32.5307 32.5711 32.6282 32.485 32.7194 32.3959C32.8295 32.2914 32.9396 32.19 33.0434 32.0824C33.0969 32.0301 33.1504 31.9779 33.2007 31.9226C33.2542 31.8703 33.3045 31.815 33.3548 31.7597C33.446 31.6675 33.5341 31.5722 33.6222 31.4738C33.6442 31.4492 33.6662 31.4246 33.6882 31.4C33.6945 31.3939 33.7008 31.3878 33.7071 31.3785C33.7165 31.3693 33.7228 31.3601 33.7323 31.3509C33.8078 31.2679 33.8833 31.1787 33.9587 31.0927C33.9147 31.0927 33.8707 31.0927 33.8266 31.0927H33.8298ZM25.4313 20.7561L25.425 20.7346L25.4156 20.71C25.403 20.6731 25.3904 20.6363 25.3747 20.5994C25.101 19.9385 24.7047 19.3484 24.1794 18.8413C24.0599 18.7214 23.9592 18.6353 23.8617 18.5554L23.8523 18.5462L23.8428 18.5401C23.522 18.2788 23.1729 18.0544 22.8111 17.8823H22.8017L22.7922 17.8731C22.0688 17.5258 21.2918 17.3506 20.474 17.3506C18.9044 17.3506 17.426 18.0268 16.4195 19.2101C16.064 19.6281 15.7809 20.0922 15.5733 20.5932L15.5545 20.6332L15.5356 20.6731C15.5293 20.6916 15.5199 20.71 15.5136 20.7315V20.7438L15.5041 20.7561C15.501 20.7623 15.501 20.7746 15.4979 20.7807H25.447C25.447 20.7807 25.4408 20.7623 25.4376 20.7531L25.4313 20.7561ZM20.9647 37.2368C20.9867 37.2368 21.0119 37.2368 21.0339 37.2368C21.0088 37.2368 20.9867 37.2368 20.9647 37.2368ZM20.5495 24.2201H3.59531C3.59531 24.2201 3.58902 24.2232 3.58902 24.2262V24.2324H20.5527C20.5527 24.2324 20.5558 24.2201 20.5527 24.2201H20.5495ZM16.0106 27.4412C17.3977 26.2241 18.9201 25.1483 20.5464 24.2355C20.4552 24.2508 18.9768 24.5643 16.0106 27.4412Z" fill="#1B4A3F"/>
<path d="M20.4677 0C9.16282 0 0 8.95343 0 20C0 21.0573 0.0849283 22.0993 0.248494 23.1136C0.308258 23.4916 0.380605 23.8666 0.462387 24.2354C0.698299 25.3143 1.02543 26.3593 1.43434 27.3644C2.91273 31.0128 5.45743 34.1355 8.69414 36.3639C9.82652 37.1446 11.0407 37.8147 12.3272 38.3587C13.3998 38.8136 14.5196 39.1824 15.6803 39.4529C16.8504 39.7295 18.0614 39.9047 19.3007 39.9723C19.6876 39.9939 20.0777 40.0061 20.4709 40.0061C21.4932 40.0061 22.5029 39.9324 23.4842 39.7879C27.7275 39.1793 31.543 37.2952 34.5186 34.5505C35.5346 33.613 36.4531 32.5772 37.2552 31.4554C39.5766 28.2127 40.9386 24.2662 40.9386 20.0061C40.9354 8.95343 31.7726 0 20.4677 0ZM20.5495 24.2201C20.5495 24.2201 20.5589 24.2293 20.5495 24.2324C20.5495 24.2324 20.5495 24.2324 20.5464 24.2324C18.9201 25.1452 17.3977 26.221 16.0106 27.4381C15.9508 27.4965 15.8942 27.5519 15.8344 27.6103C15.5985 27.8439 15.3531 28.0928 15.0984 28.3572C15.0355 28.4217 14.9694 28.4893 14.9065 28.56C14.7744 28.6953 14.6454 28.8366 14.5102 28.9811C10.9495 26.7374 7.40134 25.2344 4.31247 24.2324H3.58901V24.2262C3.58901 24.2262 3.59215 24.2201 3.5953 24.2201H20.5495ZM15.4947 20.7838C15.4947 20.7838 15.4978 20.7653 15.501 20.7592L15.5073 20.7469V20.7346C15.5167 20.7131 15.5293 20.6946 15.5324 20.6762L15.5513 20.6362L15.5702 20.5963C15.7778 20.0922 16.0577 19.6281 16.4163 19.2132C17.4229 18.0298 18.8981 17.3536 20.4709 17.3536C21.2887 17.3536 22.0656 17.5288 22.7891 17.8761L22.7985 17.8823H22.808C23.1697 18.0575 23.5188 18.2819 23.8397 18.5431L23.8491 18.5493L23.8586 18.5585C23.9561 18.6384 24.0567 18.7245 24.1763 18.8443C24.7016 19.3484 25.0979 19.9416 25.3715 20.6024C25.3841 20.6393 25.3999 20.6762 25.4124 20.7131L25.4219 20.7377L25.4282 20.7592C25.4282 20.7592 25.4345 20.7776 25.4376 20.7868H15.4884L15.4947 20.7838ZM10.3235 34.0987C10.2449 34.0464 10.1725 33.9942 10.097 33.9388C10.0907 33.9358 10.0844 33.9296 10.0782 33.9265C10.0719 33.9235 10.0687 33.9204 10.0656 33.9173C9.99323 33.8681 9.92088 33.8128 9.84854 33.7575C9.84225 33.7544 9.83595 33.7483 9.82966 33.7452C9.74788 33.6837 9.6661 33.6223 9.58432 33.5577C9.50568 33.4993 9.43019 33.4378 9.35469 33.3794C9.3484 33.3733 9.34211 33.3671 9.33268 33.361C9.2792 33.318 9.22258 33.2719 9.16911 33.2288C9.16282 33.2227 9.15967 33.2196 9.15653 33.2165C9.14709 33.2104 9.13766 33.2042 9.13136 33.195C9.05587 33.1335 8.98038 33.0721 8.90489 33.0045C8.7256 32.8538 8.55259 32.7002 8.38274 32.5434C8.33556 32.5004 8.29152 32.4604 8.24434 32.4143C8.17513 32.3498 8.10593 32.2822 8.03673 32.2145C7.98011 32.1592 7.9235 32.1039 7.86688 32.0486C7.85115 32.0301 7.83228 32.0148 7.8134 31.9963C7.75364 31.9379 7.70017 31.8795 7.64355 31.8211C7.50829 31.6859 7.37932 31.5445 7.25036 31.4031C7.24407 31.3939 7.23778 31.3877 7.22834 31.3785C7.18116 31.3293 7.13398 31.274 7.08994 31.2248C7.03647 31.1634 6.98299 31.1019 6.92952 31.0373C6.88548 30.9882 6.84459 30.9359 6.8037 30.8867C6.7345 30.8068 6.66844 30.7238 6.59924 30.6409C6.59924 30.6409 6.5961 30.6378 6.5961 30.6347C6.52061 30.5425 6.44826 30.4503 6.37591 30.3581C6.35389 30.3273 6.32873 30.2966 6.30671 30.2659C6.23751 30.1767 6.17146 30.0876 6.10225 29.9954C6.09282 29.9831 6.08338 29.9708 6.07709 29.9585C6.06451 29.9401 6.05193 29.9247 6.04249 29.9093C5.99845 29.8509 5.95756 29.7956 5.91982 29.7372C5.91038 29.7249 5.90094 29.7095 5.89151 29.6973C5.87263 29.6727 5.85691 29.6481 5.83803 29.6204C5.7594 29.5098 5.6839 29.3991 5.61156 29.2854C5.46372 29.061 5.32217 28.8366 5.18692 28.603C7.34158 29.4268 9.6661 30.5056 11.9969 31.9287C11.4653 32.5926 10.9086 33.3118 10.3267 34.0956L10.3235 34.0987ZM21.0371 37.2337C21.015 37.2337 20.9899 37.2337 20.9679 37.2337C20.9899 37.2337 21.015 37.2337 21.0371 37.2307V37.2337ZM33.7386 31.3539C33.7386 31.3539 33.7228 31.3724 33.7134 31.3816C33.7071 31.3877 33.7008 31.3939 33.6945 31.4031C33.6725 31.4277 33.6505 31.4523 33.6285 31.4769C33.5404 31.5722 33.4523 31.6674 33.3611 31.7627C33.3108 31.818 33.2573 31.8703 33.207 31.9256C33.1535 31.9779 33.1 32.0332 33.0497 32.0854C32.9459 32.193 32.8358 32.2945 32.7257 32.399C32.6345 32.4881 32.5401 32.5742 32.4426 32.6602C32.4332 32.6664 32.4269 32.6756 32.4174 32.6817C32.408 32.6909 32.3954 32.7032 32.3828 32.7125C32.2759 32.8077 32.1658 32.903 32.0557 32.9983C31.9991 33.0475 31.9425 33.0967 31.8827 33.1428C31.8261 33.1919 31.7695 33.2381 31.7097 33.2872C31.4738 33.4778 31.2347 33.6622 30.9894 33.8405C30.8699 33.9296 30.7503 34.0126 30.6277 34.0987C30.5207 34.1724 30.4169 34.2431 30.31 34.3138C30.1999 34.3876 30.0866 34.4583 29.9734 34.529C29.8916 34.5812 29.8067 34.6335 29.7218 34.6826C29.6557 34.7226 29.5865 34.7656 29.5173 34.8025C29.4796 34.8271 29.4387 34.8486 29.4009 34.8701C29.3223 34.9162 29.2436 34.9623 29.1619 35.0054C29.0958 35.0423 29.0297 35.0791 28.9668 35.113C28.9039 35.1468 28.841 35.1806 28.7813 35.2144C28.7152 35.2482 28.6491 35.282 28.5862 35.3158C28.517 35.3527 28.4478 35.3865 28.3786 35.4203C28.3157 35.4541 28.2528 35.4849 28.1899 35.5125C28.1301 35.5402 28.0735 35.5678 28.0138 35.5955C27.9351 35.6324 27.8533 35.6693 27.7716 35.7062C27.652 35.7584 27.5325 35.8107 27.413 35.8598C27.3721 35.8783 27.328 35.8937 27.2871 35.9121C27.2054 35.9459 27.1204 35.9797 27.0355 36.0135C27.0292 36.0166 27.0198 36.0197 27.0135 36.0227C26.9223 36.0596 26.8311 36.0965 26.7367 36.1272C26.7178 36.1334 26.7021 36.1395 26.6864 36.1457C26.6769 36.1488 26.6643 36.1549 26.6549 36.158C26.5983 36.1795 26.5417 36.201 26.4819 36.2195C26.397 36.2502 26.312 36.2809 26.224 36.3086C26.1548 36.3332 26.0856 36.3547 26.0164 36.3762C25.9126 36.41 25.8088 36.4438 25.705 36.4746C25.5571 36.5207 25.4093 36.5637 25.2583 36.6037C25.1168 36.6436 24.9721 36.6805 24.8274 36.7174C24.7204 36.742 24.6166 36.7696 24.5065 36.7942C24.4845 36.8004 24.4625 36.8034 24.4405 36.8065C24.3209 36.8342 24.1983 36.8588 24.0756 36.8834C24.0504 36.8895 24.0253 36.8957 24.0001 36.8987C23.9875 36.9018 23.9687 36.9049 23.9561 36.9079C23.9529 36.9079 23.9498 36.9079 23.9466 36.9079C23.8648 36.9264 23.7831 36.9418 23.6981 36.9541C23.6887 36.9541 23.6793 36.9571 23.6667 36.9602C23.6604 36.9602 23.6572 36.9633 23.651 36.9633C23.6132 36.9694 23.5755 36.9756 23.5409 36.9848C23.4717 36.9971 23.3993 37.0094 23.327 37.0186C23.2169 37.037 23.1068 37.0524 22.9967 37.0678C22.9558 37.0739 22.9149 37.0801 22.874 37.0862C22.8583 37.0862 22.8426 37.0924 22.8268 37.0924C22.7513 37.1047 22.6759 37.1139 22.5972 37.1231C22.5909 37.1231 22.5846 37.1231 22.5783 37.1231C22.5217 37.1292 22.4651 37.1354 22.4085 37.1415C22.2858 37.1538 22.1631 37.1661 22.0405 37.1784C22.0216 37.1784 22.0059 37.1815 21.987 37.1846C21.9776 37.1846 21.9681 37.1846 21.9618 37.1846C21.8517 37.1938 21.7416 37.203 21.6315 37.2092C21.6158 37.2092 21.6001 37.2092 21.5844 37.2122C21.5749 37.2122 21.5623 37.2122 21.5529 37.2122C21.5403 37.2122 21.5246 37.2122 21.5089 37.2122C21.4334 37.2153 21.3547 37.2215 21.2761 37.2245C21.1975 37.2276 21.122 37.2307 21.0433 37.2337C24.0819 33.3948 28.7813 31.0957 33.8361 31.0957C33.8801 31.0957 33.9241 31.0957 33.9682 31.0957C33.8927 31.1849 33.8172 31.2709 33.7417 31.3539H33.7386ZM37.3464 25.0284C37.3213 25.1053 37.2992 25.1821 37.2709 25.259C37.2646 25.2774 37.2615 25.2958 37.2521 25.3174C37.2458 25.3419 37.2363 25.3635 37.23 25.385C37.23 25.385 37.23 25.388 37.23 25.3911C37.2269 25.4034 37.2206 25.4126 37.2175 25.4249C37.1923 25.5048 37.164 25.5848 37.1357 25.6616C37.1137 25.7231 37.0948 25.7815 37.0696 25.8429C37.0508 25.8952 37.0319 25.9474 37.0099 25.9997C37.0036 26.0181 36.9973 26.0366 36.991 26.0519C36.969 26.1134 36.9438 26.1749 36.9186 26.2364C36.9029 26.2794 36.884 26.3224 36.8683 26.3655C36.8432 26.4239 36.8211 26.4822 36.796 26.5376C36.796 26.5437 36.7928 26.5468 36.7897 26.5499C36.7834 26.5622 36.7802 26.5745 36.774 26.5868C36.7456 26.6544 36.7173 26.7189 36.689 26.7865C36.6513 26.8757 36.6104 26.9648 36.5695 27.0539C36.5286 27.1431 36.4877 27.2291 36.4437 27.3183C36.4248 27.3552 36.4059 27.3951 36.3902 27.432C36.3713 27.472 36.3525 27.5088 36.3304 27.5488C36.2895 27.6318 36.2487 27.7148 36.2046 27.7978C35.4277 27.7025 34.635 27.6564 33.8329 27.6564C28.4761 27.6564 23.6101 29.7587 20.0588 33.1612C19.134 34.0464 18.2973 35.0238 17.5644 36.0719C17.3726 36.3455 17.1901 36.6252 17.0108 36.9079C16.9353 36.8957 16.8598 36.8803 16.7875 36.8618C16.7843 36.8618 16.7812 36.8618 16.7781 36.8618C16.7151 36.8495 16.6554 36.8372 16.5956 36.825C16.5862 36.8219 16.5736 36.8188 16.561 36.8157C16.4132 36.7819 16.2653 36.7481 16.1175 36.7112C16.086 36.7051 16.0546 36.6989 16.0263 36.6897C15.9948 36.6805 15.9665 36.6744 15.9351 36.6651C15.8722 36.6498 15.8124 36.6313 15.7526 36.616C15.6583 36.5914 15.5639 36.5637 15.4695 36.536C15.3752 36.5115 15.2839 36.4838 15.1896 36.453C15.0984 36.4254 15.004 36.3946 14.9128 36.3639C14.8499 36.3455 14.787 36.324 14.7209 36.3024C14.614 36.2656 14.5102 36.2287 14.4064 36.1918C14.3906 36.1856 14.3749 36.1826 14.3623 36.1764C14.2428 36.1334 14.1233 36.0873 14.0037 36.0412C13.8842 35.9951 13.7678 35.949 13.6514 35.9029C13.6168 35.8906 13.5854 35.8752 13.5539 35.8629C13.8024 35.4265 14.0698 34.9962 14.3497 34.5781C14.507 34.3384 14.6674 34.1048 14.8341 33.8712C14.8373 33.8651 14.8436 33.8589 14.8467 33.8528C15.2588 33.2811 15.696 32.734 16.1552 32.2084C16.539 31.7719 16.9385 31.3478 17.3505 30.939C17.4355 30.8499 17.5267 30.7638 17.6179 30.6777C20.0273 28.3817 22.9118 26.6298 26.0573 25.5356C26.721 25.302 27.3972 25.0991 28.0861 24.9331C29.9451 24.466 31.8701 24.2201 33.8298 24.2201C35.0062 24.2201 36.1795 24.3061 37.3401 24.4783C37.3433 24.4813 37.3433 24.4844 37.3464 24.4875V25.0284ZM36.4279 20.7838H29.7973C29.3883 20.7838 29.0329 20.5133 28.9197 20.1291C28.863 19.9477 28.8033 19.7664 28.7372 19.5851C28.7058 19.4959 28.6712 19.4099 28.6334 19.3238C28.1836 18.2173 27.5073 17.2276 26.6549 16.4039C26.4725 16.2256 26.2869 16.0596 26.0919 15.9029C25.554 15.4664 24.9689 15.0914 24.3398 14.7902C23.1728 14.2278 21.858 13.9112 20.4646 13.9112C17.7469 13.9112 15.3154 15.1191 13.7081 17.0124C13.1198 17.6979 12.6449 18.4755 12.2989 19.3207C12.258 19.416 12.2202 19.5113 12.1856 19.6127C12.1227 19.7848 12.0661 19.9539 12.0189 20.126C11.9057 20.5164 11.5471 20.7838 11.1382 20.7838H4.50749C4.00107 20.7838 3.58901 20.3811 3.58901 19.8863V19.4099C3.58901 18.0052 3.77145 16.6405 4.10801 15.3373C4.24956 14.7964 4.86293 14.5197 5.38194 14.741C5.5109 14.7964 5.63987 14.824 5.76254 14.824C6.46084 14.824 6.97041 14.0065 6.48286 13.3733C6.25638 13.0721 6.01418 12.777 5.76254 12.485C5.52348 12.2053 5.48259 11.8119 5.66503 11.4922C6.49859 9.99846 7.5712 8.64607 8.82311 7.4781C9.23202 7.10005 9.88943 7.18303 10.2071 7.63485C10.6475 8.26187 11.113 8.85815 11.5974 9.4114C12.2108 10.1153 13.3746 9.54972 13.1922 8.643C13.0035 7.6994 12.7361 6.73121 12.3995 5.77532C12.2485 5.35731 12.4499 4.89319 12.8525 4.69033C14.4095 3.91578 16.1049 3.3779 17.8979 3.1105C18.4106 3.03366 18.8887 3.39327 18.9453 3.90041C19.068 5.04995 19.2693 6.17182 19.5587 7.23221C19.7977 8.11434 21.0937 8.11434 21.3327 7.22914C21.619 6.17181 21.8203 5.04687 21.943 3.89427C21.9964 3.3902 22.4745 3.02444 22.9873 3.0982C24.777 3.35946 26.4756 3.90041 28.0358 4.66574C28.4415 4.8686 28.6429 5.33272 28.4919 5.7538C28.1553 6.71277 27.8911 7.67789 27.7024 8.62763C27.5199 9.53435 28.6869 10.0937 29.3003 9.39296C29.7847 8.83356 30.2502 8.23728 30.6937 7.60719C31.0114 7.1523 31.6688 7.07238 32.0746 7.44736C33.3296 8.61226 34.4022 9.96465 35.2484 11.4554C35.4245 11.775 35.3868 12.1684 35.1446 12.4481C34.8929 12.7432 34.6476 13.0444 34.418 13.3456C33.8486 14.0925 34.6539 15.0914 35.5283 14.7134H35.5346C36.0788 14.4736 36.6607 14.7349 36.8086 15.3004C37.1546 16.6129 37.3401 17.996 37.3401 19.4099V19.8863C37.3401 20.3811 36.9281 20.7838 36.4217 20.7838H36.4279Z" fill="#1B4A3F"/>
<path d="M33.9619 31.0958C33.8864 31.1849 33.8109 31.271 33.7354 31.3539C33.726 31.3632 33.7197 31.3724 33.7102 31.3816C33.7039 31.3878 33.6977 31.3939 33.6914 31.4031C33.6693 31.4277 33.6473 31.4523 33.6253 31.4769C33.5372 31.5722 33.4492 31.6675 33.3579 31.7627C33.3076 31.8181 33.2541 31.8703 33.2038 31.9256C33.1503 31.9779 33.0969 32.0332 33.0465 32.0855C32.9427 32.193 32.8326 32.2945 32.7225 32.399C32.6313 32.4881 32.537 32.5742 32.4395 32.6602C32.43 32.6664 32.4237 32.6756 32.4143 32.6817C32.4049 32.691 32.3923 32.7033 32.3797 32.7125C32.2727 32.8078 32.1627 32.903 32.0526 32.9983C31.9959 33.0475 31.9393 33.0967 31.8796 33.1428C31.8229 33.192 31.7663 33.2381 31.7066 33.2873C31.4706 33.4778 31.2316 33.6622 30.9862 33.8405C30.8667 33.9296 30.7472 34.0126 30.6245 34.0987C30.5176 34.1725 30.4138 34.2431 30.3068 34.3138C30.1967 34.3876 30.0835 34.4583 29.9702 34.529C29.8885 34.5812 29.8035 34.6335 29.7186 34.6827C29.6525 34.7226 29.5833 34.7657 29.5141 34.8025C29.4764 34.8271 29.4355 34.8486 29.3978 34.8702C29.3191 34.9163 29.2405 34.9624 29.1587 35.0054C29.0927 35.0423 29.0266 35.0792 28.9637 35.113C28.9008 35.1468 28.8379 35.1806 28.7781 35.2144C28.712 35.2482 28.646 35.282 28.5831 35.3158C28.5139 35.3527 28.4447 35.3865 28.3755 35.4203C28.3126 35.4541 28.2497 35.4849 28.1867 35.5125C28.127 35.5402 28.0704 35.5679 28.0106 35.5955C27.932 35.6324 27.8502 35.6693 27.7684 35.7062C27.6489 35.7584 27.5293 35.8107 27.4098 35.8599C27.3689 35.8783 27.3249 35.8937 27.284 35.9121C27.2022 35.9459 27.1173 35.9797 27.0324 36.0135C27.0261 36.0166 27.0166 36.0197 27.0103 36.0228C26.9191 36.0596 26.8279 36.0965 26.7335 36.1273C26.7147 36.1334 26.6989 36.1396 26.6832 36.1457C26.6738 36.1488 26.6612 36.1549 26.6518 36.158C26.5951 36.1795 26.5385 36.201 26.4787 36.2195C26.3938 36.2502 26.3089 36.2809 26.2208 36.3086C26.1516 36.3332 26.0824 36.3547 26.0132 36.3762C25.9094 36.41 25.8056 36.4439 25.7018 36.4746C25.554 36.5207 25.4061 36.5637 25.2552 36.6037C25.1136 36.6436 24.9689 36.6805 24.8242 36.7174C24.7173 36.742 24.6135 36.7697 24.5034 36.7942C24.4814 36.8004 24.4593 36.8035 24.4373 36.8065C24.3178 36.8342 24.1951 36.8588 24.0724 36.8834C24.0473 36.8895 24.0221 36.8957 23.997 36.8987C23.9844 36.9018 23.9655 36.9049 23.9529 36.908C23.9498 36.908 23.9466 36.908 23.9435 36.908C23.8617 36.9264 23.7799 36.9418 23.695 36.9541C23.6856 36.9541 23.6761 36.9571 23.6635 36.9602C23.6572 36.9602 23.6541 36.9633 23.6478 36.9633C23.6101 36.9694 23.5723 36.9756 23.5377 36.9848C23.4685 36.9971 23.3962 37.0094 23.3238 37.0186C23.2137 37.0371 23.1036 37.0524 22.9935 37.0678C22.9527 37.0739 22.9118 37.0801 22.8709 37.0862C22.8551 37.0862 22.8394 37.0924 22.8237 37.0924C22.7482 37.1047 22.6727 37.1139 22.5941 37.1231C22.5878 37.1231 22.5815 37.1231 22.5752 37.1231C22.5186 37.1293 22.462 37.1354 22.4053 37.1416C22.2827 37.1539 22.16 37.1662 22.0373 37.1784C22.0184 37.1784 22.0027 37.1815 21.9838 37.1846C21.9744 37.1846 21.965 37.1846 21.9587 37.1846C21.8486 37.1938 21.7385 37.203 21.6284 37.2092C21.6127 37.2092 21.5969 37.2092 21.5812 37.2123C21.5718 37.2123 21.5592 37.2123 21.5498 37.2123C21.5372 37.2123 21.5215 37.2123 21.5057 37.2123C21.4302 37.2153 21.3516 37.2215 21.273 37.2245C21.1943 37.2276 21.1188 37.2307 21.0402 37.2338C24.0787 33.3948 28.7781 31.0958 33.8329 31.0958C33.8769 31.0958 33.921 31.0958 33.965 31.0958H33.9619Z" fill="#2C8D66"/>
<path d="M20.5464 24.2354C18.9201 25.1483 17.3977 26.224 16.0106 27.4412C18.9799 24.5643 20.4583 24.2508 20.5464 24.2354Z" fill="#1C6D4F"/>
<path d="M20.5527 24.2324H3.58902V24.2262C3.58902 24.2262 3.59217 24.2201 3.59531 24.2201H20.5495C20.5495 24.2201 20.559 24.2293 20.5495 24.2324H20.5527Z" fill="#1C6D4F"/>
<path d="M37.3464 19.4099V19.8863C37.3464 20.3811 36.9344 20.7838 36.428 20.7838H29.7973C29.3883 20.7838 29.0329 20.5133 28.9197 20.1291C28.863 19.9478 28.8033 19.7664 28.7372 19.5851C28.7058 19.4959 28.6712 19.4099 28.6334 19.3238C28.1836 18.2173 27.5073 17.2276 26.6549 16.4039C26.4725 16.2256 26.2869 16.0596 26.0919 15.9029C25.554 15.4664 24.9689 15.0915 24.3398 14.7902C23.1729 14.2278 21.858 13.9112 20.4646 13.9112C17.7469 13.9112 15.3154 15.1191 13.7081 17.0125C13.1199 17.6979 12.6449 18.4755 12.2989 19.3207C12.258 19.416 12.2203 19.5113 12.1856 19.6127C12.1227 19.7849 12.0661 19.9539 12.0189 20.126C11.9057 20.5164 11.5471 20.7838 11.1382 20.7838H4.5075C4.00108 20.7838 3.58902 20.3811 3.58902 19.8863V19.4099C3.58902 18.0052 3.77146 16.6406 4.10803 15.3373C4.24957 14.7964 4.86294 14.5198 5.38195 14.7411C5.51092 14.7964 5.63988 14.8241 5.76255 14.8241C6.46085 14.8241 6.97042 14.0065 6.48287 13.3733C6.2564 13.0721 6.01419 12.777 5.76255 12.485C5.5235 12.2053 5.48261 11.8119 5.66504 11.4923C6.4986 9.99848 7.57121 8.64609 8.82312 7.47812C9.23203 7.10006 9.88944 7.18305 10.2071 7.63487C10.6475 8.26189 11.113 8.85817 11.5974 9.41142C12.2108 10.1153 13.3746 9.54973 13.1922 8.64301C13.0035 7.69942 12.7361 6.73123 12.3995 5.77533C12.2486 5.35732 12.4499 4.89321 12.8525 4.69035C14.4095 3.9158 16.1049 3.37792 17.8979 3.11051C18.4106 3.03367 18.8887 3.39328 18.9453 3.90043C19.068 5.04996 19.2693 6.17183 19.5587 7.23223C19.7977 8.11435 21.0937 8.11435 21.3327 7.22915C21.619 6.17183 21.8203 5.04689 21.943 3.89428C21.9964 3.39021 22.4746 3.02445 22.9873 3.09822C24.7771 3.35947 26.4756 3.90043 28.0358 4.66576C28.4416 4.86862 28.6429 5.33273 28.4919 5.75382C28.1553 6.71279 27.8911 7.6779 27.7024 8.62765C27.5199 9.53436 28.6869 10.0938 29.3003 9.39298C29.7847 8.83358 30.2502 8.2373 30.6937 7.60721C31.0114 7.15231 31.6688 7.0724 32.0746 7.44738C33.3296 8.61228 34.4023 9.96467 35.2484 11.4554C35.4245 11.775 35.3868 12.1684 35.1446 12.4481C34.893 12.7432 34.6476 13.0444 34.418 13.3456C33.8487 14.0925 34.6539 15.0915 35.5283 14.7134H35.5346C36.0788 14.4737 36.6607 14.7349 36.8086 15.3005C37.1546 16.6129 37.3401 17.996 37.3401 19.4099H37.3464Z" fill="#FFB930"/>
<path d="M25.4408 20.7868H15.4916C15.4916 20.7868 15.4947 20.7684 15.4979 20.7623L15.5042 20.75V20.7377C15.5136 20.7161 15.5262 20.6977 15.5293 20.6793L15.5482 20.6393L15.5671 20.5993C15.7747 20.0953 16.0546 19.6312 16.4132 19.2162C17.4198 18.0329 18.895 17.3567 20.4677 17.3567C21.2856 17.3567 22.0625 17.5319 22.786 17.8792L22.7954 17.8854H22.8048C23.1666 18.0605 23.5157 18.2849 23.8366 18.5462L23.846 18.5523L23.8554 18.5615C23.953 18.6415 24.0536 18.7275 24.1731 18.8474C24.6984 19.3515 25.0948 19.9447 25.3684 20.6055C25.381 20.6424 25.3967 20.6793 25.4093 20.7161L25.4188 20.7407L25.425 20.7623C25.425 20.7623 25.4313 20.7807 25.4345 20.7899L25.4408 20.7868Z" fill="#F28500"/>
<path d="M37.3465 24.4875V25.0285C37.3213 25.1053 37.2993 25.1821 37.271 25.259C37.2647 25.2774 37.2615 25.2959 37.2521 25.3174C37.2458 25.342 37.2364 25.3635 37.2301 25.385C37.2301 25.385 37.2301 25.3881 37.2301 25.3911C37.2269 25.4034 37.2206 25.4127 37.2175 25.4249C37.1923 25.5049 37.164 25.5848 37.1357 25.6616C37.1137 25.7231 37.0948 25.7815 37.0697 25.843C37.0508 25.8952 37.0319 25.9475 37.0099 25.9997C37.0036 26.0182 36.9973 26.0366 36.991 26.052C36.969 26.1134 36.9438 26.1749 36.9187 26.2364C36.9029 26.2794 36.8841 26.3224 36.8683 26.3655C36.8432 26.4239 36.8212 26.4823 36.796 26.5376C36.796 26.5437 36.7929 26.5468 36.7897 26.5499C36.7834 26.5622 36.7803 26.5745 36.774 26.5868C36.7457 26.6544 36.7174 26.7189 36.6891 26.7866C36.6513 26.8757 36.6104 26.9648 36.5695 27.054C36.5286 27.1431 36.4877 27.2292 36.4437 27.3183C36.4248 27.3552 36.406 27.3951 36.3902 27.432C36.3714 27.472 36.3525 27.5089 36.3305 27.5488C36.2896 27.6318 36.2487 27.7148 36.2046 27.7978C35.4277 27.7025 34.635 27.6564 33.8329 27.6564C28.4762 27.6564 23.6101 29.7587 20.0588 33.1612C19.1341 34.0464 18.2974 35.0238 17.5645 36.0719C17.3726 36.3455 17.1901 36.6252 17.0109 36.908C16.9354 36.8957 16.8599 36.8803 16.7875 36.8619C16.7844 36.8619 16.7812 36.8619 16.7781 36.8619C16.7152 36.8496 16.6554 36.8373 16.5956 36.825C16.5862 36.8219 16.5736 36.8188 16.561 36.8158C16.4132 36.7819 16.2654 36.7481 16.1175 36.7113C16.0861 36.7051 16.0546 36.699 16.0263 36.6897C15.9949 36.6805 15.9665 36.6744 15.9351 36.6652C15.8722 36.6498 15.8124 36.6313 15.7527 36.616C15.6583 36.5914 15.5639 36.5637 15.4696 36.5361C15.3752 36.5115 15.284 36.4838 15.1896 36.4531C15.0984 36.4254 15.004 36.3947 14.9128 36.3639C14.8499 36.3455 14.787 36.324 14.7209 36.3025C14.614 36.2656 14.5102 36.2287 14.4064 36.1918C14.3907 36.1857 14.3749 36.1826 14.3623 36.1764C14.2428 36.1334 14.1233 36.0873 14.0038 36.0412C13.8842 35.9951 13.7678 35.949 13.6515 35.9029C13.6169 35.8906 13.5854 35.8752 13.554 35.8629C13.8024 35.4265 14.0698 34.9962 14.3498 34.5782C14.507 34.3384 14.6675 34.1048 14.8342 33.8712C14.8373 33.8651 14.8436 33.8589 14.8468 33.8528C15.2588 33.2811 15.696 32.734 16.1553 32.2084C16.539 31.772 16.9385 31.3478 17.3506 30.939C17.4355 30.8499 17.5267 30.7638 17.6179 30.6778C20.0274 28.3818 22.9118 26.6298 26.0573 25.5356C26.721 25.302 27.3973 25.0991 28.0861 24.9332C29.9451 24.466 31.8702 24.2201 33.8298 24.2201C35.0062 24.2201 36.1795 24.3062 37.3402 24.4783C37.3433 24.4813 37.3433 24.4844 37.3465 24.4875Z" fill="#2C8D66"/>
<path d="M5.18378 28.6061C7.33844 29.4298 9.66296 30.5087 11.9938 31.9318C11.4622 32.5957 10.9054 33.3149 10.3235 34.0986C10.2449 34.0464 10.1725 33.9941 10.097 33.9388C10.0907 33.9357 10.0845 33.9296 10.0782 33.9265C10.0719 33.9235 10.0687 33.9204 10.0656 33.9173C9.99323 33.8681 9.92089 33.8128 9.84854 33.7575C9.84225 33.7544 9.83596 33.7483 9.82967 33.7452C9.74789 33.6837 9.6661 33.6222 9.58432 33.5577C9.50568 33.4993 9.43019 33.4378 9.3547 33.3794C9.34841 33.3733 9.34212 33.3671 9.33268 33.361C9.27921 33.318 9.22259 33.2718 9.16912 33.2288C9.16282 33.2227 9.15968 33.2196 9.15653 33.2165C9.1471 33.2104 9.13766 33.2042 9.13137 33.195C9.05588 33.1335 8.98039 33.0721 8.90489 33.0044C8.7256 32.8538 8.5526 32.7002 8.38274 32.5434C8.33556 32.5004 8.29152 32.4604 8.24434 32.4143C8.17514 32.3498 8.10594 32.2821 8.03674 32.2145C7.98012 32.1592 7.9235 32.1039 7.86688 32.0485C7.85115 32.0301 7.83228 32.0147 7.81341 31.9963C7.75364 31.9379 7.70017 31.8795 7.64355 31.8211C7.5083 31.6859 7.37933 31.5445 7.25037 31.4031C7.24407 31.3939 7.23778 31.3877 7.22835 31.3785C7.18116 31.3293 7.13398 31.274 7.08995 31.2248C7.03647 31.1633 6.983 31.1019 6.92953 31.0373C6.88549 30.9882 6.8446 30.9359 6.80371 30.8867C6.7345 30.8068 6.66845 30.7238 6.59925 30.6408C6.59925 30.6408 6.5961 30.6378 6.5961 30.6347C6.52061 30.5425 6.44826 30.4503 6.37592 30.3581C6.3539 30.3273 6.32874 30.2966 6.30672 30.2659C6.23752 30.1767 6.17146 30.0876 6.10226 29.9954C6.09282 29.9831 6.08339 29.9708 6.0771 29.9585C6.06451 29.9401 6.05193 29.9247 6.0425 29.9093C6.0016 29.8509 5.96071 29.7956 5.91982 29.7372C5.91039 29.7249 5.90095 29.7095 5.89151 29.6972C5.87264 29.6726 5.85691 29.6481 5.83804 29.6204C5.7594 29.5097 5.68391 29.3991 5.61156 29.2854C5.46373 29.061 5.32218 28.8366 5.18692 28.603L5.18378 28.6061Z" fill="#1C6D4F"/>
<path d="M20.5527 24.2324C20.5527 24.2324 20.5527 24.2324 20.5495 24.2324C20.4583 24.2477 18.9799 24.5612 16.0137 27.4381C15.954 27.4935 15.8973 27.5519 15.8376 27.6103C15.6017 27.8439 15.3563 28.0928 15.1015 28.3572C15.0386 28.4217 14.9726 28.4893 14.9097 28.56C14.7775 28.6952 14.6486 28.8366 14.5133 28.9811C10.9526 26.7374 7.40452 25.2344 4.31564 24.2324H20.5558H20.5527Z" fill="#1C6D4F"/>
</g>
<defs>
<clipPath id="clip0_6_489">
<rect width="118" height="40" fill="white"/>
</clipPath>
</defs>
</svg>
